<?xml version="1.0" encoding="utf-8"?>
<!-- Generator: Adobe Illustrator 27.9.0, SVG Export Plug-In . SVG Version: 6.00 Build 0)  -->
<svg version="1.1" id="Layer_1" xmlns="http://www.w3.org/2000/svg" xmlns:xlink="http://www.w3.org/1999/xlink" x="0px" y="0px"
	 viewBox="0 0 200 200" style="enable-background:new 0 0 200 200;" xml:space="preserve">
<style type="text/css">
	.st0{fill:#AA71AE;stroke:#111212;}
	.st1{fill:#F4E3AB;stroke:#111212;}
	.st2{fill:#C3A94C;stroke:#111212;}
</style>
<g>
	<g>
		<path class="st0" d="M144.25,55.35c0,23.09-16.67,41.75-40.53,41.75c-23.89,0-40.52-18.66-40.52-41.75S79.82,19.1,103.72,19.1
			C127.58,19.1,144.25,32.26,144.25,55.35z"/>
	</g>
	<g>
		<path class="st0" d="M74.66,125.39c0-0.53,0.07-1.06,0.23-1.53c-2.94,0.61-4.67,0.99-4.67,0.99c-2.52,0.69-4.97,1.46-7.42,2.22
			c-5.7,1.84-11.21,4.06-16.44,6.73c-8.03,4.13-13.19,12.39-13.19,21.41v7.27c0,5.73,3.09,10.93,8.14,13.61
			c9.71,5.12,28.6,12.31,58.42,12.92V151.7C91.3,146.5,74.66,135.03,74.66,125.39z"/>
	</g>
	<g>
		<path class="st0" d="M161,133.81c-5.2-2.68-10.74-4.89-16.44-6.73c-2.44-0.76-4.89-1.53-7.42-2.22c-1.53-0.46-3.09-0.84-4.67-1.22
			c0.16,0.53,0.31,1.14,0.31,1.75c0,9.64-16.67,21.11-25.08,26.31v37.31c29.79-0.61,48.68-7.8,58.42-12.92
			c5.01-2.68,8.1-7.88,8.1-13.61v-7.19C174.22,146.2,169.06,137.94,161,133.81z"/>
	</g>
	<g>
		<path class="st1" d="M132.47,123.64c-0.72-2.07-2.67-3.59-5-3.59c-1.64,0-3.14,0.77-4.1,1.91c-0.76,0.92-1.22,2.07-1.22,3.37
			c-0.46,2.67-8.65,9.94-17.97,16.05c-0.15-0.07-0.31-0.07-0.46-0.07c-0.19,0-0.34,0-0.49,0.07c-9.33-6.12-17.51-13.38-17.93-15.98
			c0-1.14-0.38-2.22-0.99-3.05c-0.96-1.38-2.52-2.29-4.32-2.29c-2.4,0-4.43,1.68-5.08,3.82c-0.16,0.46-0.23,0.99-0.23,1.53
			c0,9.64,16.63,21.11,25.08,26.31v37.31c1.3,0,2.6,0.08,3.97,0.08c1.34,0,2.64-0.08,3.98-0.08V151.7
			c8.41-5.2,25.08-16.67,25.08-26.31C132.77,124.78,132.63,124.17,132.47,123.64z"/>
	</g>
	<g>
		<path class="st2" d="M120.43,108.8h-16.71H86.97c-0.65,4.36-2.52,9.48-7,13.92c0,8.18,23.74,22.56,23.74,22.56
			s23.75-14.38,23.75-22.56C122.95,118.28,121.11,113.16,120.43,108.8z"/>
	</g>
	<g>
		<path class="st1" d="M75.58,53.28c0,0-2.72,10.1-2.72,10.86c-0.46-0.08-2.37-1.68-5.24-0.84c-3.06,0.76-5.32,5.04-4.82,10.7
			c0.49,5.58,3.48,9.87,6.62,9.56c0.42-0.08,0.8-0.23,1.14-0.38c2.76,10.86,8.57,19.88,16.1,25.39c5.04,3.67,10.85,5.73,17.05,5.73
			c6.19,0,12.01-2.06,17.02-5.73c7.57-5.5,13.38-14.53,16.14-25.39c0.34,0.15,0.73,0.31,1.1,0.38c3.18,0.31,6.12-3.98,6.62-9.56
			c0.5-5.66-1.72-9.94-4.82-10.7c-2.87-0.85-4.78,0.76-5.2,0.84c0-0.76-2.72-10.86-2.72-10.86c-14.46,0-19.92-10.85-19.92-10.85
			C98.63,56.8,75.58,53.28,75.58,53.28z"/>
	</g>
</g>
</svg>
