<svg width="16" height="16" viewBox="0 0 16 16" fill="none" xmlns="http://www.w3.org/2000/svg">
<path d="M5.53091 2.83445C5.28297 3.0722 5.26622 3.4752 5.4935 3.73456L9.23208 8.00033L5.4935 12.2661C5.28516 12.5038 5.28187 12.8623 5.47375 13.1035L5.53091 13.1662C5.77885 13.404 6.1641 13.3864 6.39138 13.1271L10.5067 8.43082C10.5093 8.42782 10.5119 8.4248 10.5144 8.42177L10.4693 8.46995C10.4971 8.44321 10.5221 8.41439 10.5441 8.38391C10.5522 8.37259 10.5599 8.36115 10.5672 8.34953C10.5747 8.33776 10.5817 8.3256 10.5884 8.31325C10.5944 8.30198 10.6001 8.29081 10.6053 8.27951C10.6115 8.26618 10.6174 8.25238 10.6228 8.23842C10.6275 8.22606 10.6319 8.21355 10.6359 8.20093C10.6398 8.18843 10.6434 8.17595 10.6465 8.16339C10.6501 8.14944 10.6532 8.13535 10.6558 8.12118C10.6584 8.10663 10.6606 8.09198 10.6623 8.07728C10.6636 8.06659 10.6646 8.0557 10.6653 8.0448C10.6663 8.02979 10.6668 8.01487 10.6667 7.99994C10.6667 7.98534 10.6662 7.97064 10.6653 7.95597C10.6646 7.94495 10.6636 7.93406 10.6623 7.9232C10.6606 7.90867 10.6584 7.89402 10.6557 7.87946C10.6532 7.8653 10.6501 7.85121 10.6466 7.83721C10.6434 7.8247 10.6398 7.81222 10.6359 7.79986C10.6319 7.7871 10.6275 7.77459 10.6228 7.7622C10.6174 7.74827 10.6115 7.73447 10.6052 7.72087C10.6001 7.70984 10.5944 7.69867 10.5885 7.68763C10.5817 7.67505 10.5747 7.66289 10.5672 7.65094C10.5599 7.6395 10.5522 7.62806 10.5441 7.61683C10.5221 7.58627 10.4971 7.55744 10.4693 7.5307L10.5144 7.57888C10.5119 7.57585 10.5093 7.57283 10.5067 7.56984L6.39138 2.87358C6.1641 2.61422 5.77885 2.5967 5.53091 2.83445Z" fill="#98A2B3"/>
</svg>
