<?xml version="1.0" encoding="utf-8"?>
<!-- Generator: Adobe Illustrator 27.9.0, SVG Export Plug-In . SVG Version: 6.00 Build 0)  -->
<svg version="1.1" id="Layer_1" xmlns="http://www.w3.org/2000/svg" xmlns:xlink="http://www.w3.org/1999/xlink" x="0px" y="0px"
	 viewBox="0 0 200 200" style="enable-background:new 0 0 200 200;" xml:space="preserve">
<style type="text/css">
	.st0{fill:#F4E3AB;stroke:#111212;}
	.st1{fill:#C3A94C;stroke:#111212;}
	.st2{fill:#AA71AE;stroke:#111212;}
	.st3{fill:#C598C5;stroke:#111212;}
</style>
<g>
	<g>
		<g>
			<polygon class="st0" points="136.25,13.89 30.17,13.89 30.17,184.96 169.22,184.96 169.22,46.83 136.25,46.83 			"/>
		</g>
		<g>
			<path class="st1" d="M136.25,46.83h32.7c0.1,0,0.15-0.12,0.08-0.19l-32.78-32.75V46.83z"/>
		</g>
	</g>
	<g>
		<g>
			<rect x="51.56" y="43.52" class="st2" width="61.49" height="6.7"/>
		</g>
		<g>
			<rect x="99.69" y="64.92" class="st3" width="48.14" height="6.69"/>
		</g>
		<g>
			<rect x="51.56" y="64.92" class="st3" width="32.09" height="6.69"/>
		</g>
		<g>
			<rect x="121.09" y="86.31" class="st3" width="26.75" height="6.69"/>
		</g>
		<g>
			<rect x="51.56" y="86.31" class="st3" width="53.48" height="6.69"/>
		</g>
		<g>
			<rect x="99.69" y="107.71" class="st3" width="37.44" height="6.69"/>
		</g>
		<g>
			<rect x="51.56" y="107.71" class="st3" width="32.09" height="6.69"/>
		</g>
		<g>
			<rect x="51.56" y="129.09" class="st3" width="18.7" height="6.7"/>
		</g>
		<g>
			<rect x="86.35" y="129.09" class="st3" width="61.49" height="6.7"/>
		</g>
		<g>
			<rect x="51.56" y="150.49" class="st3" width="56.14" height="6.7"/>
		</g>
	</g>
</g>
</svg>
