<svg width="38" height="38" viewBox="0 0 38 38" fill="none" xmlns="http://www.w3.org/2000/svg">
<path d="M19.75 14C19.75 13.5858 19.4142 13.25 19 13.25C18.5858 13.25 18.25 13.5858 18.25 14V24C18.25 24.4142 18.5858 24.75 19 24.75C19.4142 24.75 19.75 24.4142 19.75 24V14Z" fill="#98A2B3"/>
<path d="M23.75 18C23.75 17.5858 23.4142 17.25 23 17.25C22.5858 17.25 22.25 17.5858 22.25 18V24C22.25 24.4142 22.5858 24.75 23 24.75C23.4142 24.75 23.75 24.4142 23.75 24V18Z" fill="#98A2B3"/>
<path d="M15.75 20C15.75 19.5858 15.4142 19.25 15 19.25C14.5858 19.25 14.25 19.5858 14.25 20V24C14.25 24.4142 14.5858 24.75 15 24.75C15.4142 24.75 15.75 24.4142 15.75 24V20Z" fill="#98A2B3"/>
<path fillRule="evenodd" clipRule="evenodd" d="M23.4635 9.37373C22.3214 9.24999 20.8818 9.24999 19.0452 9.25H18.9548C17.1182 9.24999 15.6786 9.24999 14.5365 9.37373C13.3709 9.50001 12.4266 9.76232 11.6202 10.3482C11.1321 10.7028 10.7028 11.1321 10.3482 11.6202C9.76232 12.4266 9.50001 13.3709 9.37373 14.5365C9.24999 15.6786 9.24999 17.1182 9.25 18.9548V19.0452C9.24999 20.8818 9.24999 22.3214 9.37373 23.4635C9.50001 24.6291 9.76232 25.5734 10.3482 26.3798C10.7028 26.8679 11.1321 27.2972 11.6202 27.6518C12.4266 28.2377 13.3709 28.5 14.5365 28.6263C15.6786 28.75 17.1182 28.75 18.9547 28.75H19.0453C20.8818 28.75 22.3214 28.75 23.4635 28.6263C24.6291 28.5 25.5734 28.2377 26.3798 27.6518C26.8679 27.2972 27.2972 26.8679 27.6518 26.3798C28.2377 25.5734 28.5 24.6291 28.6263 23.4635C28.75 22.3214 28.75 20.8818 28.75 19.0453V18.9547C28.75 17.1182 28.75 15.6786 28.6263 14.5365C28.5 13.3709 28.2377 12.4266 27.6518 11.6202C27.2972 11.1321 26.8679 10.7028 26.3798 10.3482C25.5734 9.76232 24.6291 9.50001 23.4635 9.37373ZM12.5019 11.5617C13.0099 11.1926 13.6601 10.9775 14.698 10.865C15.75 10.751 17.1084 10.75 19 10.75C20.8916 10.75 22.25 10.751 23.302 10.865C24.3399 10.9775 24.9901 11.1926 25.4981 11.5617C25.8589 11.8238 26.1762 12.1411 26.4383 12.5019C26.8074 13.0099 27.0225 13.6601 27.135 14.698C27.249 15.75 27.25 17.1084 27.25 19C27.25 20.8916 27.249 22.25 27.135 23.302C27.0225 24.3399 26.8074 24.9901 26.4383 25.4981C26.1762 25.8589 25.8589 26.1762 25.4981 26.4383C24.9901 26.8074 24.3399 27.0225 23.302 27.135C22.25 27.249 20.8916 27.25 19 27.25C17.1084 27.25 15.75 27.249 14.698 27.135C13.6601 27.0225 13.0099 26.8074 12.5019 26.4383C12.1411 26.1762 11.8238 25.8589 11.5617 25.4981C11.1926 24.9901 10.9775 24.3399 10.865 23.302C10.751 22.25 10.75 20.8916 10.75 19C10.75 17.1084 10.751 15.75 10.865 14.698C10.9775 13.6601 11.1926 13.0099 11.5617 12.5019C11.8238 12.1411 12.1411 11.8238 12.5019 11.5617Z" fill="#98A2B3"/>
</svg>
