<svg width="45" height="45" viewBox="0 0 45 45" fill="none" xmlns="http://www.w3.org/2000/svg">
<rect width="44.5" height="44.5" rx="10" fill="#FCFCFD"/>
<path d="M14.6296 20.8342H17.5843L13.775 10.5976H10.7768L6.92407 20.8342H9.69052L10.3423 18.9381H13.9923L14.6296 20.8342ZM12.1963 13.5631L13.2826 16.8137H11.081L12.1963 13.5631Z" fill="#12B1B7"/>
<path d="M26.8548 17.7547C26.8548 16.6712 26.2609 15.9155 25.2036 15.4736C26.0726 14.9603 26.5506 14.2617 26.5506 13.3635C26.5506 11.5814 25.1312 10.5976 22.8572 10.5976H18.6858V20.8342H22.9875C25.4064 20.8342 26.8548 19.6794 26.8548 17.7547ZM22.6399 12.722C23.5524 12.722 23.9725 13.0641 23.9725 13.5916C23.9725 14.1477 23.5524 14.4898 22.6399 14.4898H21.1626V12.722H22.6399ZM22.7703 16.6141C23.7987 16.6141 24.2766 17.0276 24.2766 17.6549C24.2766 18.3107 23.7987 18.7099 22.7703 18.7099H21.1626V16.6141H22.7703Z" fill="#12B1B7"/>
<path d="M33.1805 21.0481C36.0338 21.0481 38.2209 19.1947 38.5685 16.4573H35.6717C35.44 17.7547 34.4695 18.6387 33.2094 18.6387C31.6741 18.6387 30.7037 17.4553 30.7037 15.7017C30.7037 13.9623 31.6741 12.7932 33.2094 12.7932C34.484 12.7932 35.4545 13.6772 35.6717 14.9603H38.5685C38.2354 12.2515 36.0338 10.3838 33.1805 10.3838C30.2257 10.3838 27.8938 12.7077 27.8938 15.7017C27.8938 18.7099 30.2257 21.0481 33.1805 21.0481Z" fill="#12B1B7"/>
<path d="M8.76354 33.9033V23.6667H8.05383V33.9033H8.76354Z" fill="#12B1B7"/>
<path d="M18.3639 33.9033H19.1605V23.6667H18.4942V32.9053L11.9764 23.6667H11.1798V33.9033H11.846V24.6504L18.3639 33.9033Z" fill="#12B1B7"/>
<path d="M26.0223 34.1171C28.4122 34.1171 30.4399 32.5061 30.8455 30.1394H30.1068C29.7737 32.0784 28.108 33.5041 26.0223 33.5041C23.5455 33.5041 21.7205 31.4796 21.7205 28.7707C21.7205 26.0904 23.5455 24.0659 26.0223 24.0659C28.079 24.0659 29.7447 25.4773 30.1068 27.4163H30.8455C30.4254 25.0353 28.4122 23.4528 26.0223 23.4528C23.1545 23.4528 20.9963 25.7625 20.9963 28.7707C20.9963 31.7932 23.1545 34.1171 26.0223 34.1171Z" fill="#12B1B7"/>
</svg>
