<svg width="73" height="72" viewBox="0 0 73 72" fill="none" xmlns="http://www.w3.org/2000/svg">
<g clipPath="url(#clip0_1569_3383)">
<circle cx="36.125" cy="36" r="36" fill="#BFDEB4"/>
<path d="M12.8619 17.4465C12.9957 16.6344 14.1634 16.6344 14.2971 17.4465L14.5499 18.9807C15.1072 22.3645 17.7594 25.0167 21.1433 25.5741L22.6775 25.8268C23.4896 25.9606 23.4896 27.1282 22.6775 27.262L21.1433 27.5147C17.7594 28.0721 15.1072 30.7243 14.5499 34.1081L14.2971 35.6423C14.1634 36.4544 12.9957 36.4544 12.8619 35.6423L12.6092 34.1081C12.0519 30.7243 9.39968 28.0721 6.01581 27.5147L4.48161 27.262C3.66952 27.1282 3.66952 25.9606 4.48162 25.8268L6.01581 25.5741C9.39968 25.0167 12.0519 22.3645 12.6092 18.9807L12.8619 17.4465Z" fill="#A3CB95"/>
<path d="M25.2258 45.8097C25.3595 44.9976 26.5272 44.9976 26.661 45.8097L27.8393 52.9637C28.3967 56.3476 31.0489 58.9998 34.4328 59.5571L41.5867 60.7355C42.3988 60.8693 42.3988 62.037 41.5867 62.1707L34.4328 63.3491C31.0489 63.9065 28.3967 66.5587 27.8393 69.9425L26.661 77.0965C26.5272 77.9086 25.3595 77.9086 25.2258 77.0965L24.0474 69.9425C23.49 66.5587 20.8378 63.9065 17.454 63.3491L10.3 62.1707C9.48788 62.037 9.48788 60.8693 10.3 60.7355L17.454 59.5571C20.8378 58.9998 23.49 56.3476 24.0474 52.9637L25.2258 45.8097Z" fill="#A3CB95"/>
<path d="M57.5893 1.44647C57.723 0.634372 58.8907 0.634365 59.0245 1.44646L60.8714 12.6592C61.4288 16.043 64.0809 18.6952 67.4648 19.2526L78.6775 21.0995C79.4896 21.2333 79.4896 22.401 78.6775 22.5347L67.4648 24.3816C64.0809 24.939 61.4288 27.5912 60.8714 30.9751L59.0245 42.1878C58.8907 42.9999 57.723 42.9999 57.5893 42.1878L55.7424 30.9751C55.185 27.5912 52.5328 24.939 49.1489 24.3816L37.9362 22.5347C37.1241 22.401 37.1241 21.2333 37.9362 21.0995L49.1489 19.2526C52.5328 18.6952 55.185 16.043 55.7423 12.6592L57.5893 1.44647Z" fill="#A3CB95"/>
<path d="M25.3034 20.4705C28.5929 22.1274 32.5862 20.4733 33.7406 16.9757C34.9621 13.2749 40.1971 13.2749 41.4186 16.9757C42.573 20.4733 46.5663 22.1274 49.8558 20.4705C53.3363 18.7173 57.0381 22.419 55.2849 25.8996C53.628 29.1891 55.2821 33.1824 58.7797 34.3368C62.4805 35.5583 62.4805 40.7933 58.7797 42.0148C55.2821 43.1692 53.628 47.1625 55.2849 50.452C57.0381 53.9325 53.3363 57.6343 49.8558 55.8811C46.5663 54.2242 42.573 55.8783 41.4186 59.3759C40.1971 63.0767 34.9621 63.0767 33.7406 59.3759C32.5862 55.8783 28.5929 54.2242 25.3034 55.8811C21.8228 57.6343 18.1211 53.9325 19.8743 50.452C21.5312 47.1625 19.8771 43.1692 16.3795 42.0148C12.6787 40.7933 12.6787 35.5583 16.3795 34.3368C19.8771 33.1824 21.5312 29.1891 19.8743 25.8996C18.1211 22.419 21.8228 18.7173 25.3034 20.4705Z" fill="black" stroke="black" stroke-width="1.98621"/>
<path d="M23.8488 18.2908C27.1383 19.9477 31.1316 18.2936 32.286 14.796C33.5075 11.0952 38.7425 11.0952 39.964 14.796C41.1184 18.2936 45.1117 19.9477 48.4012 18.2908C51.8818 16.5376 55.5835 20.2393 53.8303 23.7199C52.1734 27.0094 53.8275 31.0027 57.3251 32.1571C61.0259 33.3786 61.0259 38.6136 57.3251 39.8351C53.8275 40.9895 52.1734 44.9828 53.8303 48.2723C55.5835 51.7528 51.8818 55.4546 48.4012 53.7014C45.1117 52.0445 41.1184 53.6986 39.964 57.1962C38.7425 60.897 33.5075 60.897 32.286 57.1962C31.1316 53.6986 27.1383 52.0445 23.8488 53.7014C20.3682 55.4546 16.6665 51.7528 18.4197 48.2723C20.0766 44.9828 18.4225 40.9895 14.9249 39.8351C11.2241 38.6136 11.2241 33.3786 14.9249 32.1571C18.4225 31.0027 20.0766 27.0094 18.4197 23.7199C16.6665 20.2393 20.3682 16.5376 23.8488 18.2908Z" fill="white" stroke="black" stroke-width="1.98621"/>
<path d="M25.9588 25.827C27.7434 24.0423 29.9663 22.7589 32.4042 22.1057C34.842 21.4525 37.4088 21.4525 39.8467 22.1057C42.2845 22.7589 44.5074 24.0423 46.2921 25.827C48.0767 27.6116 49.3601 29.8345 50.0133 32.2723C50.6665 34.7102 50.6665 37.277 50.0133 39.7148C49.3601 42.1527 48.0767 44.3756 46.2921 46.1602C44.5074 47.9448 42.2845 49.2283 39.8467 49.8815C37.4088 50.5347 34.842 50.5347 32.4042 49.8815C29.9664 49.2283 27.7434 47.9448 25.9588 46.1602C24.1742 44.3756 22.8908 42.1527 22.2376 39.7148C21.5843 37.277 21.5843 34.7102 22.2376 32.2723C22.8908 29.8345 24.1742 27.6116 25.9588 25.827Z" fill="white" stroke="black" stroke-width="2.97931"/>
<path d="M28.472 28.3456C29.8154 27.0022 31.4888 26.0361 33.3239 25.5443C35.159 25.0526 37.0912 25.0526 38.9263 25.5443C40.7614 26.0361 42.4348 27.0022 43.7782 28.3456C45.1216 29.689 46.0877 31.3623 46.5794 33.1974C47.0711 35.0325 47.0711 36.9647 46.5794 38.7999C46.0877 40.635 45.1216 42.3083 43.7782 43.6517C42.4348 44.9951 40.7614 45.9612 38.9263 46.4529C37.0912 46.9446 35.159 46.9446 33.3239 46.4529C31.4888 45.9612 29.8154 44.9951 28.472 43.6517C27.1286 42.3083 26.1625 40.635 25.6708 38.7999C25.1791 36.9647 25.1791 35.0325 25.6708 33.1974C26.1625 31.3623 27.1286 29.689 28.472 28.3456Z" fill="white" stroke="black" stroke-width="1.98621"/>
<path d="M30.8823 35.9198L33.4521 38.5931C33.7382 38.8908 34.2145 38.8908 34.5007 38.5931L41.3678 31.4492" stroke="black" stroke-width="1.98621" stroke-linecap="round"/>
</g>
<defs>
<clipPath id="clip0_1569_3383">
<rect x="0.125" width="72" height="72" rx="36" fill="white"/>
</clipPath>
</defs>
</svg>
