<svg width="73" height="72" viewBox="0 0 73 72" fill="none" xmlns="http://www.w3.org/2000/svg">
<g clipPath="url(#clip0_1569_551)">
<circle cx="36.125" cy="36" r="36" fill="#EAECF0"/>
<path d="M12.8619 17.4504C12.9957 16.6383 14.1634 16.6383 14.2971 17.4504L14.5499 18.9846C15.1072 22.3684 17.7594 25.0206 21.1433 25.578L22.6775 25.8307C23.4896 25.9645 23.4896 27.1321 22.6775 27.2659L21.1433 27.5186C17.7594 28.076 15.1072 30.7282 14.5499 34.112L14.2971 35.6462C14.1634 36.4583 12.9957 36.4583 12.8619 35.6462L12.6092 34.112C12.0519 30.7282 9.39968 28.076 6.01581 27.5186L4.48161 27.2659C3.66952 27.1321 3.66952 25.9645 4.48162 25.8307L6.01581 25.578C9.39968 25.0206 12.0519 22.3684 12.6092 18.9846L12.8619 17.4504Z" fill="#D0D5DD"/>
<path d="M25.2258 45.8136C25.3595 45.0016 26.5272 45.0016 26.661 45.8136L27.8393 52.9676C28.3967 56.3515 31.0489 59.0037 34.4328 59.5611L41.5867 60.7394C42.3988 60.8732 42.3988 62.0409 41.5867 62.1746L34.4328 63.353C31.0489 63.9104 28.3967 66.5626 27.8393 69.9464L26.661 77.1004C26.5272 77.9125 25.3595 77.9125 25.2258 77.1004L24.0474 69.9464C23.49 66.5626 20.8378 63.9104 17.454 63.353L10.3 62.1746C9.48788 62.0409 9.48788 60.8732 10.3 60.7394L17.454 59.5611C20.8378 59.0037 23.49 56.3515 24.0474 52.9676L25.2258 45.8136Z" fill="#D0D5DD"/>
<path d="M57.5893 1.45037C57.723 0.638278 58.8907 0.638271 59.0245 1.45037L60.8714 12.6631C61.4287 16.0469 64.0809 18.6991 67.4648 19.2565L78.6775 21.1034C79.4896 21.2372 79.4896 22.4049 78.6775 22.5386L67.4648 24.3855C64.0809 24.9429 61.4287 27.5951 60.8714 30.979L59.0245 42.1917C58.8907 43.0038 57.723 43.0038 57.5893 42.1917L55.7423 30.979C55.185 27.5951 52.5328 24.9429 49.1489 24.3855L37.9362 22.5386C37.1241 22.4049 37.1241 21.2372 37.9362 21.1034L49.1489 19.2565C52.5328 18.6991 55.185 16.0469 55.7423 12.6631L57.5893 1.45037Z" fill="#D0D5DD"/>
<path d="M25.423 20.2448C28.5674 21.8286 32.3847 20.2475 33.4882 16.9041C34.79 12.9599 40.3692 12.9599 41.671 16.9041C42.7745 20.2475 46.5917 21.8286 49.7362 20.2448C53.4456 18.3763 57.3908 22.3215 55.5223 26.0309C53.9385 29.1753 55.5196 32.9926 58.863 34.0961C62.8072 35.3979 62.8072 40.9771 58.863 42.2789C55.5196 43.3824 53.9385 47.1996 55.5223 50.3441C57.3908 54.0535 53.4456 57.9987 49.7362 56.1302C46.5917 54.5464 42.7745 56.1275 41.671 59.4709C40.3692 63.4151 34.79 63.4151 33.4882 59.4709C32.3847 56.1275 28.5674 54.5464 25.423 56.1302C21.7136 57.9987 17.7684 54.0535 19.6369 50.3441C21.2207 47.1996 19.6396 43.3824 16.2961 42.2789C12.352 40.9771 12.352 35.3979 16.2961 34.0961C19.6396 32.9926 21.2207 29.1754 19.6369 26.0309C17.7684 22.3215 21.7136 18.3763 25.423 20.2448Z" fill="#98A2B3" stroke="#98A2B3" stroke-width="1.45455"/>
<path d="M23.9684 18.0612C27.1128 19.645 30.9301 18.0639 32.0336 14.7205C33.3354 10.7763 38.9146 10.7763 40.2164 14.7205C41.3199 18.0639 45.1371 19.645 48.2816 18.0612C51.991 16.1927 55.9362 20.1379 54.0677 23.8473C52.4839 26.9918 54.065 30.809 57.4084 31.9125C61.3526 33.2143 61.3526 38.7935 57.4084 40.0953C54.065 41.1988 52.4839 45.0161 54.0677 48.1605C55.9362 51.8699 51.991 55.8151 48.2816 53.9466C45.1371 52.3628 41.3199 53.9439 40.2164 57.2873C38.9146 61.2315 33.3354 61.2315 32.0336 57.2873C30.9301 53.9439 27.1129 52.3628 23.9684 53.9466C20.259 55.8151 16.3138 51.8699 18.1823 48.1605C19.7661 45.0161 18.185 41.1988 14.8416 40.0953C10.8974 38.7935 10.8974 33.2143 14.8416 31.9125C18.185 30.809 19.7661 26.9918 18.1823 23.8473C16.3138 20.1379 20.259 16.1927 23.9684 18.0612Z" fill="white" stroke="#98A2B3" stroke-width="1.45455"/>
<path d="M25.4192 25.2957C27.2985 23.4164 29.6393 22.065 32.2064 21.3771C34.7735 20.6893 37.4764 20.6893 40.0435 21.3771C42.6106 22.065 44.9514 23.4164 46.8307 25.2957C48.7099 27.1749 50.0614 29.5157 50.7492 32.0828C51.4371 34.6499 51.4371 37.3529 50.7492 39.92C50.0614 42.4871 48.7099 44.8279 46.8307 46.7071C44.9514 48.5864 42.6106 49.9378 40.0435 50.6257C37.4764 51.3135 34.7735 51.3135 32.2064 50.6257C29.6393 49.9378 27.2985 48.5864 25.4192 46.7071C23.54 44.8279 22.1885 42.4871 21.5007 39.92C20.8128 37.3529 20.8128 34.6499 21.5007 32.0828C22.1885 29.5157 23.54 27.1749 25.4192 25.2957Z" fill="white" stroke="#98A2B3" stroke-width="1.45455"/>
<path d="M28.2841 28.1615C29.6604 26.7851 31.3749 25.7953 33.2551 25.2915C35.1353 24.7877 37.1149 24.7877 38.9951 25.2915C40.8753 25.7953 42.5898 26.7851 43.9661 28.1615C45.3425 29.5379 46.3324 31.2523 46.8362 33.1325C47.34 35.0127 47.34 36.9924 46.8362 38.8726C46.3324 40.7527 45.3425 42.4672 43.9661 43.8436C42.5898 45.22 40.8753 46.2098 38.9951 46.7136C37.1149 47.2174 35.1353 47.2174 33.2551 46.7136C31.3749 46.2098 29.6604 45.22 28.2841 43.8436C26.9077 42.4672 25.9178 40.7527 25.414 38.8726C24.9102 36.9924 24.9102 35.0127 25.414 33.1325C25.9178 31.2523 26.9077 29.5379 28.2841 28.1615Z" fill="white" stroke="#98A2B3" stroke-width="1.45455"/>
<path d="M30.8823 35.9276L33.4521 38.6009C33.7382 38.8986 34.2145 38.8986 34.5007 38.6009L41.3678 31.457" stroke="#98A2B3" stroke-width="1.45455" stroke-linecap="round"/>
</g>
<defs>
<clipPath id="clip0_1569_551">
<rect x="0.125" width="72" height="72" rx="36" fill="white"/>
</clipPath>
</defs>
</svg>
