<svg width="128" height="128" viewBox="0 0 128 128" fill="none" xmlns="http://www.w3.org/2000/svg">
<path d="M31.1455 72.5776C31.1455 69.2639 33.8318 66.5776 37.1455 66.5776H110.946C111.997 66.5776 112.54 68.3297 111.788 69.0637C109.907 70.899 107.928 73.7536 107.928 77.6383C107.928 81.6481 110.037 84.6208 111.969 86.5028C112.713 87.2276 112.182 88.9049 111.143 88.9049H37.1455C33.8318 88.9049 31.1455 86.2186 31.1455 82.9049V72.5776Z" fill="black"/>
<path d="M73.1727 30.4597C73.1727 36.225 68.8955 42.9865 60.341 42.9865C51.7865 42.9865 47.5093 36.225 47.5093 30.4597C47.5093 24.2441 51.5599 22.895 55.9504 23.0261C57.7524 23.0799 60.341 24.4518 60.341 24.4518C60.341 24.4518 62.9296 23.0799 64.7316 23.0261C69.1221 22.895 73.1727 24.1962 73.1727 30.4597Z" fill="white" stroke="black" stroke-width="2" stroke-linecap="round" stroke-linejoin="round"/>
<path d="M64.1372 39.2439C65.4738 38.727 68.393 36.6989 69.3768 32.7211" stroke="black" stroke-width="2" stroke-linecap="round" stroke-linejoin="round"/>
<path d="M60.6723 24.0348C58.0358 24.0597 55.6245 22.2716 54.9878 17.1707C57.4997 18.1498 61.5908 17.691 60.6723 24.0348Z" fill="white" stroke="black" stroke-width="2" stroke-linecap="round" stroke-linejoin="round"/>
<path d="M60.7153 23.9529C61.8915 22.4826 63.6559 17.938 62.1321 14.6232" stroke="black" stroke-width="2" stroke-linecap="round" stroke-linejoin="round"/>
<path d="M53.2847 32.1699C52.7358 31.1412 52.5809 29.4444 53.1413 28.1398" stroke="black" stroke-width="2" stroke-linecap="round" stroke-linejoin="round"/>
<path d="M24.0249 50.1057C24.0249 46.792 26.7112 44.1057 30.0249 44.1057H101.553C101.553 44.1057 96.0143 47.6809 95.4376 54.4374C94.8609 61.1939 101.553 64.7221 101.553 64.7221H30.0249C26.7112 64.7221 24.0249 62.0358 24.0249 58.7221V50.1057Z" fill="white"/>
<path fillRule="evenodd" clipRule="evenodd" d="M102.642 45.7835C102.641 45.7841 102.64 45.7847 102.639 45.7853L102.62 45.7985C102.594 45.8159 102.55 45.8465 102.49 45.8901C102.37 45.9774 102.187 46.1163 101.96 46.3056C101.504 46.6858 100.883 47.2611 100.245 48.0225C98.9641 49.5504 97.6736 51.7572 97.4304 54.6075C97.2063 57.2327 98.3738 59.274 99.7458 60.7536C100.429 61.4907 101.135 62.0535 101.67 62.4311C101.935 62.6185 102.154 62.7567 102.3 62.8446C102.372 62.8885 102.426 62.9195 102.459 62.9376C102.475 62.9467 102.485 62.9525 102.49 62.9551L102.488 62.9543L102.487 62.9536C102.489 62.9545 102.491 62.9553 102.492 62.9562C103.301 63.3865 103.715 64.3122 103.495 65.2025C103.274 66.0951 102.473 66.7221 101.553 66.7221H30.0249C25.6066 66.7221 22.0249 63.1404 22.0249 58.7221V50.1057C22.0249 45.6874 25.6066 42.1057 30.0249 42.1057H101.553C102.44 42.1057 103.221 42.6897 103.472 43.5404C103.722 44.3886 103.385 45.2999 102.644 45.7819C102.643 45.7825 102.643 45.783 102.642 45.7835ZM98.8804 62.7221C100.273 64.0471 101.553 64.7221 101.553 64.7221H30.0249C26.7112 64.7221 24.0249 62.0358 24.0249 58.7221V50.1057C24.0249 46.792 26.7112 44.1057 30.0249 44.1057H101.553C101.553 44.1057 100.504 44.7832 99.2706 46.1057C97.6712 47.8212 95.7633 50.6221 95.4376 54.4374C95.1132 58.2385 97.0895 61.0179 98.8804 62.7221Z" fill="black"/>
<path d="M18.8921 96.7604C18.8921 93.4467 21.5784 90.7604 24.8921 90.7604H96.4205C96.4205 90.7604 91.3969 93.9012 90.5625 100.937C89.7282 107.974 96.4205 111.377 96.4205 111.377H24.8921C21.5784 111.377 18.8921 108.69 18.8921 105.377V96.7604Z" fill="white"/>
<path fillRule="evenodd" clipRule="evenodd" d="M94.1875 92.7604C95.3915 91.4037 96.4205 90.7604 96.4205 90.7604H24.8921C21.5784 90.7604 18.8921 93.4467 18.8921 96.7604V105.377C18.8921 108.69 21.5784 111.377 24.8921 111.377H96.4205C96.4205 111.377 95.1224 110.717 93.7409 109.377C91.9856 107.674 90.0956 104.875 90.5625 100.937C91.0192 97.0857 92.7313 94.4013 94.1875 92.7604ZM97.3285 109.595C97.3305 109.596 97.3324 109.597 97.3344 109.598C97.3351 109.598 97.3353 109.598 97.3344 109.598C98.1541 110.019 98.5804 110.946 98.3654 111.843C98.1498 112.742 97.3455 113.377 96.4205 113.377H24.8921C20.4738 113.377 16.8921 109.795 16.8921 105.377V96.7604C16.8921 92.3421 20.4738 88.7604 24.8921 88.7604H96.4205C97.3126 88.7604 98.0969 89.3513 98.3429 90.2089C98.5879 91.0626 98.2404 91.9751 97.4909 92.4498C97.4893 92.4508 97.4872 92.4521 97.4857 92.4531M97.3331 109.597C97.3291 109.595 97.3192 109.59 97.3038 109.581C97.2729 109.564 97.2204 109.535 97.1494 109.493C97.0072 109.41 96.793 109.277 96.5329 109.095C96.0088 108.729 95.3203 108.18 94.6603 107.452C93.3488 106.006 92.2196 103.947 92.5486 101.173C92.9122 98.1065 94.182 95.9092 95.3531 94.4758C95.9408 93.7565 96.5017 93.2327 96.9049 92.8959C97.1059 92.7279 97.266 92.6079 97.3681 92.5346C97.4191 92.4981 97.4555 92.4733 97.475 92.4603L97.4857 92.4531L97.4836 92.4544L97.4824 92.4552" fill="black"/>
<path d="M37.1372 72.6205H83.7591" stroke="white" stroke-width="2" stroke-linecap="round" stroke-linejoin="round"/>
<path d="M37.1372 77.7415H62.5868" stroke="white" stroke-width="2" stroke-linecap="round" stroke-linejoin="round"/>
<path d="M78.9473 43.4194H87.2341V55.6798C87.2341 56.5707 86.157 57.0169 85.527 56.3869L83.7978 54.6577C83.4073 54.2672 82.7741 54.2672 82.3836 54.6577L80.6544 56.3869C80.0244 57.0169 78.9473 56.5707 78.9473 55.6798V43.4194Z" fill="black"/>
<path d="M23.4502 95.9478H70.0721" stroke="black" stroke-width="2" stroke-linecap="round" stroke-linejoin="round"/>
<path d="M23.4502 101.069H48.8998" stroke="black" stroke-width="2" stroke-linecap="round" stroke-linejoin="round"/>
<path d="M29.438 49.4528H68.5747" stroke="black" stroke-width="2" stroke-linecap="round" stroke-linejoin="round"/>
</svg>
