<svg width="25" height="24" viewBox="0 0 25 24" fill="none" xmlns="http://www.w3.org/2000/svg">
<g clipPath="url(#clip0_2936_17031)">
<rect x="0.5" width="24" height="24" rx="6" fill="white"/>
<path d="M21.0762 7.48016C21.3414 7.16195 21.2984 6.68903 20.9802 6.42385C20.6619 6.15868 20.189 6.20167 19.9239 6.51988L14.5332 12.9887C13.4503 14.2881 12.6886 15.1994 12.0279 15.796C11.3826 16.3787 10.9373 16.5639 10.5 16.5639C10.0628 16.5639 9.61742 16.3787 8.97213 15.796C8.31143 15.1994 7.54969 14.2881 6.46686 12.9887L5.07618 11.3199C4.81101 11.0017 4.33809 10.9587 4.01988 11.2239C3.70167 11.489 3.65868 11.9619 3.92385 12.2802L5.35312 13.9953C6.38839 15.2376 7.21748 16.2326 7.96684 16.9092C8.74089 17.6082 9.53216 18.0639 10.5 18.0639C11.4679 18.0639 12.2591 17.6082 13.0332 16.9092C13.7826 16.2326 14.6116 15.2377 15.6469 13.9953L21.0762 7.48016Z" fill="#FD853A"/>
</g>
<rect x="1" y="0.5" width="23" height="23" rx="5.5" stroke="#98A2B3"/>
<defs>
<clipPath id="clip0_2936_17031">
<rect x="0.5" width="24" height="24" rx="6" fill="white"/>
</clipPath>
</defs>
</svg>
