<?xml version="1.0" encoding="utf-8"?>
<!-- Generator: Adobe Illustrator 27.9.0, SVG Export Plug-In . SVG Version: 6.00 Build 0)  -->
<svg version="1.1" id="Layer_1" xmlns="http://www.w3.org/2000/svg" xmlns:xlink="http://www.w3.org/1999/xlink" x="0px" y="0px"
	 viewBox="0 0 200 200" style="enable-background:new 0 0 200 200;" xml:space="preserve">
<style type="text/css">
	.st0{fill:#C3A94C;stroke:#111212;}
	.st1{fill:#F4E3AB;stroke:#111212;}
	.st2{fill:#AA71AE;stroke:#111212;}
	.st3{fill:#C598C5;stroke:#111212;}
</style>
<g>
	<g>
		<rect x="25.41" y="68.3" class="st0" width="126.66" height="79.61"/>
	</g>
	<g>
		<rect x="38.87" y="84.49" class="st1" width="126.67" height="79.6"/>
	</g>
	<g>
		<polygon class="st0" points="118.23,153.74 102.36,140.44 54.7,180.36 181.72,180.36 134.11,140.44 		"/>
	</g>
	<g>
		<polygon class="st2" points="181.41,100.76 134.11,140.44 181.72,180.36 181.72,100.76 		"/>
	</g>
	<g>
		<polygon class="st2" points="55.05,100.76 54.7,100.76 54.7,180.36 54.7,180.36 102.36,140.44 		"/>
	</g>
	<g>
		<polygon class="st1" points="118.23,153.74 134.11,140.44 181.41,100.76 55.05,100.76 102.36,140.44 		"/>
	</g>
	<g>
		<polygon class="st2" points="17.41,132.11 17.41,156.24 58.9,190.16 59.25,190.16 59.25,166.04 		"/>
	</g>
	<g>
		<rect x="59.25" y="166.04" class="st3" width="130.74" height="24.12"/>
	</g>
	<g>
		<polygon class="st2" points="109.62,31.89 109.62,18.04 88.74,18.04 88.74,31.89 75.39,31.89 99.18,55.77 123,31.89 		"/>
	</g>
</g>
</svg>
