<svg width="201" height="200" viewBox="0 0 201 200" fill="none" xmlns="http://www.w3.org/2000/svg">
<rect x="0.433594" width="200" height="200" rx="20" fill="#F2F4F7"/>
<g clipPath="url(#clip0_875_21778)">
<rect x="10.2168" y="10" width="42" height="42" rx="11" fill="#FCFCFD"/>
<path d="M31.6291 43.36C36.9211 43.36 40.8811 40.912 40.8811 36.808C40.8811 33.424 38.6131 30.868 33.8611 30.724C37.1731 30.544 40.0891 28.78 40.0891 25.144C40.0891 21.688 37.2451 18.52 31.6651 18.52C26.5531 18.52 23.1331 21.184 22.0531 24.496L25.9051 27.844C26.5171 24.928 28.6771 23.452 31.4851 23.452C33.6451 23.452 34.8691 24.604 34.8691 26.296C34.8691 28.096 33.5011 28.852 31.3411 28.852H27.3811V32.992H31.0891C33.6091 32.992 35.3011 33.64 35.3011 35.62C35.3011 37.42 33.9331 38.464 31.4851 38.464C28.0291 38.464 26.0851 36.664 25.3651 33.532L21.5131 36.952C22.5211 40.552 26.1571 43.36 31.6291 43.36Z" fill="#FD853A"/>
</g>
<path d="M53.8708 80.8403C53.8708 79.7358 54.7662 78.8403 55.8708 78.8403H151.933C153.037 78.8403 153.933 79.7358 153.933 80.8403V142.8C153.933 143.905 153.037 144.8 151.933 144.8H55.8708C54.7662 144.8 53.8708 143.905 53.8708 142.8V80.8403Z" fill="black"/>
<path d="M48.9351 75.7323C48.9351 74.6277 49.8305 73.7323 50.9351 73.7323H146.997C148.101 73.7323 148.997 74.6277 148.997 75.7323V137.692C148.997 138.797 148.101 139.692 146.997 139.692H50.9351C49.8305 139.692 48.9351 138.797 48.9351 137.692V75.7323Z" fill="white"/>
<path fillRule="evenodd" clipRule="evenodd" d="M50.9351 71.7323H146.997C149.206 71.7323 150.997 73.5232 150.997 75.7323V137.692C150.997 139.901 149.206 141.692 146.997 141.692H50.9351C48.7259 141.692 46.9351 139.901 46.9351 137.692V75.7323C46.9351 73.5232 48.7259 71.7323 50.9351 71.7323ZM50.9351 73.7323C49.8305 73.7323 48.9351 74.6277 48.9351 75.7323V137.692C48.9351 138.797 49.8305 139.692 50.9351 139.692H146.997C148.101 139.692 148.997 138.797 148.997 137.692V75.7323C148.997 74.6277 148.101 73.7323 146.997 73.7323H50.9351Z" fill="black"/>
<path fillRule="evenodd" clipRule="evenodd" d="M64.313 97.5522C64.313 96.9999 64.7607 96.5522 65.313 96.5522H132.619C133.171 96.5522 133.619 96.9999 133.619 97.5522C133.619 98.1045 133.171 98.5522 132.619 98.5522H65.313C64.7607 98.5522 64.313 98.1045 64.313 97.5522Z" fill="black"/>
<path fillRule="evenodd" clipRule="evenodd" d="M84.9534 86.2961C84.9534 85.7439 85.4011 85.2961 85.9534 85.2961H110.183C110.736 85.2961 111.183 85.7439 111.183 86.2961C111.183 86.8484 110.736 87.2961 110.183 87.2961H85.9534C85.4011 87.2961 84.9534 86.8484 84.9534 86.2961Z" fill="black"/>
<path fillRule="evenodd" clipRule="evenodd" d="M64.313 102.712C64.313 102.16 64.7607 101.712 65.313 101.712H132.619C133.171 101.712 133.619 102.16 133.619 102.712C133.619 103.265 133.171 103.712 132.619 103.712H65.313C64.7607 103.712 64.313 103.265 64.313 102.712Z" fill="black"/>
<path fillRule="evenodd" clipRule="evenodd" d="M64.313 108.789C64.313 108.237 64.7607 107.789 65.313 107.789H132.619C133.171 107.789 133.619 108.237 133.619 108.789C133.619 109.341 133.171 109.789 132.619 109.789H65.313C64.7607 109.789 64.313 109.341 64.313 108.789Z" fill="black"/>
<path fillRule="evenodd" clipRule="evenodd" d="M64.313 114.847C64.313 114.294 64.7607 113.847 65.313 113.847H132.619C133.171 113.847 133.619 114.294 133.619 114.847C133.619 115.399 133.171 115.847 132.619 115.847H65.313C64.7607 115.847 64.313 115.399 64.313 114.847Z" fill="black"/>
<path fillRule="evenodd" clipRule="evenodd" d="M64.313 120.455C64.313 119.903 64.7607 119.455 65.313 119.455H96.7224C97.2747 119.455 97.7224 119.903 97.7224 120.455C97.7224 121.007 97.2747 121.455 96.7224 121.455H65.313C64.7607 121.455 64.313 121.007 64.313 120.455Z" fill="black"/>
<path d="M126.887 128.198H137.657V147.268L132.272 141.883L126.887 147.268V128.198Z" fill="white"/>
<path fillRule="evenodd" clipRule="evenodd" d="M124.887 128.198C124.887 127.093 125.783 126.198 126.887 126.198H137.657C138.761 126.198 139.657 127.093 139.657 128.198V147.268C139.657 148.077 139.169 148.806 138.422 149.115C137.675 149.425 136.814 149.254 136.242 148.682L132.272 144.712L128.301 148.682C127.73 149.254 126.869 149.425 126.122 149.115C125.375 148.806 124.887 148.077 124.887 147.268V128.198ZM132.272 141.883L137.657 147.268V128.198H126.887V147.268L132.272 141.883Z" fill="black"/>
<path d="M141.369 128.811C141.369 133.705 137.451 137.673 132.619 137.673C127.786 137.673 123.869 133.705 123.869 128.811C123.869 123.917 127.786 119.949 132.619 119.949C137.451 119.949 141.369 123.917 141.369 128.811Z" fill="white"/>
<path fillRule="evenodd" clipRule="evenodd" d="M143.369 128.811C143.369 134.786 138.58 139.673 132.619 139.673C126.658 139.673 121.869 134.786 121.869 128.811C121.869 122.836 126.658 117.949 132.619 117.949C138.58 117.949 143.369 122.836 143.369 128.811ZM132.619 137.673C137.451 137.673 141.369 133.705 141.369 128.811C141.369 123.917 137.451 119.949 132.619 119.949C127.786 119.949 123.869 123.917 123.869 128.811C123.869 133.705 127.786 137.673 132.619 137.673Z" fill="black"/>
<path fillRule="evenodd" clipRule="evenodd" d="M139.291 128.811C139.291 132.505 136.328 135.543 132.619 135.543C128.91 135.543 125.947 132.505 125.947 128.811C125.947 125.117 128.91 122.078 132.619 122.078C136.328 122.078 139.291 125.117 139.291 128.811ZM132.619 133.543C135.2 133.543 137.292 131.424 137.292 128.811C137.292 126.197 135.2 124.078 132.619 124.078C130.039 124.078 127.947 126.197 127.947 128.811C127.947 131.424 130.039 133.543 132.619 133.543Z" fill="black"/>
<defs>
<clipPath id="clip0_875_21778">
<rect x="10.2168" y="10" width="42" height="42" rx="11" fill="white"/>
</clipPath>
</defs>
</svg>
