<?xml version="1.0" encoding="utf-8"?>
<!-- Generator: Adobe Illustrator 27.9.0, SVG Export Plug-In . SVG Version: 6.00 Build 0)  -->
<svg version="1.1" id="Layer_1" xmlns="http://www.w3.org/2000/svg" xmlns:xlink="http://www.w3.org/1999/xlink" x="0px" y="0px"
	 viewBox="0 0 200 200" style="enable-background:new 0 0 200 200;" xml:space="preserve">
<style type="text/css">
	.st0{fill:#F4E3AB;stroke:#111212;}
	.st1{fill:#AA71AE;stroke:#111212;}
	.st2{fill:#C3A94C;stroke:#111212;}
	.st3{fill:#C598C5;stroke:#111212;}
</style>
<g>
	<g>
		<rect x="13.99" y="49.42" class="st0" width="172.12" height="126.26"/>
	</g>
	<g>
		<rect x="13.99" y="22.47" class="st1" width="172.12" height="26.94"/>
	</g>
	<g>
		<path class="st0" d="M171.98,39.28c-0.89,0-1.74-0.31-2.35-0.94c-0.66-0.7-1.01-1.55-1.01-2.39c0-0.94,0.35-1.78,1.01-2.4
			c1.24-1.24,3.48-1.24,4.72,0c0.66,0.62,1.01,1.47,1.01,2.4c0,0.85-0.35,1.7-1.01,2.39C173.72,38.97,172.87,39.28,171.98,39.28z"/>
	</g>
	<g>
		<path class="st0" d="M152.51,35.95c0-1.86,1.47-3.41,3.33-3.41l0,0c1.86,0,3.37,1.55,3.37,3.41l0,0c0,1.85-1.51,3.33-3.37,3.33
			l0,0C153.98,39.28,152.51,37.81,152.51,35.95z"/>
	</g>
	<g>
		<path class="st0" d="M139.74,39.28c-0.93,0-1.78-0.31-2.4-0.94c-0.62-0.7-0.97-1.55-0.97-2.39c0-0.94,0.35-1.78,0.97-2.4
			c1.24-1.24,3.49-1.24,4.76,0c0.62,0.62,0.97,1.47,0.97,2.4c0,0.85-0.35,1.7-0.97,2.39C141.44,38.97,140.59,39.28,139.74,39.28z"/>
	</g>
	<g>
		<path class="st2" d="M145.54,71.64H54.55c-7.51,0-13.67,6.19-13.67,13.7v36.15c0,7.43,6.16,13.62,13.67,13.62h90.99
			c7.51,0,13.67-6.19,13.67-13.62V85.33C159.21,77.83,153.05,71.64,145.54,71.64z"/>
	</g>
	<g>
		<polygon class="st3" points="129.83,103.38 109.46,84.56 109.46,94.7 80.35,94.7 80.35,112.04 109.46,112.04 109.46,122.26 		"/>
	</g>
</g>
</svg>
