<svg width="78" height="78" viewBox="0 0 78 78" fill="none" xmlns="http://www.w3.org/2000/svg">
<rect x="4" y="4" width="70" height="70" rx="35" fill="#EAECF0"/>
<path d="M40.3886 35.6719C40.3628 35.6511 40.3374 35.631 40.3125 35.6116V47.75C40.3125 48.4749 39.7249 49.0625 39 49.0625C38.2751 49.0625 37.6875 48.4749 37.6875 47.75V35.6116C37.6626 35.631 37.6372 35.6511 37.6114 35.6719C37.0468 36.1253 36.3756 36.7997 35.3784 37.8058L32.9322 40.2739C32.4219 40.7888 31.5909 40.7925 31.0761 40.2822C30.5612 39.7719 30.5575 38.9409 31.0678 38.4261L33.5674 35.9041C34.4973 34.9658 35.2729 34.1832 35.9677 33.6252C36.6964 33.04 37.4623 32.5948 38.3954 32.4759C38.7969 32.4247 39.2031 32.4247 39.6046 32.4759C40.5377 32.5948 41.3036 33.04 42.0323 33.6252C42.7271 34.1832 43.5027 34.9657 44.4326 35.904L46.9322 38.4261C47.4425 38.9409 47.4388 39.7719 46.9239 40.2822C46.4091 40.7925 45.5781 40.7888 45.0678 40.2739L42.6216 37.8058C41.6244 36.7997 40.9532 36.1253 40.3886 35.6719Z" fill="#667085"/>
<path fillRule="evenodd" clipRule="evenodd" d="M51.9146 22.1093C50.5035 21.0841 48.8509 20.625 46.8112 20.404C44.8124 20.1875 42.2931 20.1875 39.0792 20.1875H38.9806C36.9505 20.1875 35.2052 20.1875 33.7051 20.2389C30.4265 20.3512 28.0168 20.706 26.0854 22.1093C25.2312 22.7299 24.4799 23.4812 23.8593 24.3354C22.456 26.2668 22.1012 28.6765 21.9889 31.9551C21.9375 33.4552 21.9375 35.2006 21.9375 37.2307V40.8292C21.9375 44.0431 21.9375 46.5624 22.154 48.5612C22.375 50.6009 22.8341 52.2535 23.8593 53.6646C24.4799 54.5188 25.2312 55.2701 26.0854 55.8907C27.4965 56.9159 29.1491 57.375 31.1888 57.596C33.1875 57.8125 35.7068 57.8125 38.9206 57.8125H39.0792C42.2931 57.8125 44.8125 57.8125 46.8112 57.596C48.8509 57.375 50.5035 56.9159 51.9146 55.8907C52.7688 55.2701 53.5201 54.5188 54.1407 53.6646C55.1659 52.2535 55.625 50.6009 55.846 48.5612C56.0625 46.5625 56.0625 44.0432 56.0625 40.8294V37.1708C56.0625 33.9569 56.0625 31.4375 55.846 29.4388C55.625 27.3991 55.1659 25.7465 54.1407 24.3354C53.5201 23.4812 52.7688 22.7299 51.9146 22.1093ZM39 22.8125C42.3103 22.8125 44.6875 22.8143 46.5284 23.0138C48.3448 23.2105 49.4826 23.587 50.3717 24.2329C51.0031 24.6917 51.5583 25.2469 52.0171 25.8783C52.663 26.7674 53.0395 27.9052 53.2362 29.7216C53.4357 31.5625 53.4375 33.9397 53.4375 37.25V40.75C53.4375 44.0603 53.4357 46.4375 53.2362 48.2784C53.0395 50.0948 52.663 51.2326 52.0171 52.1217C51.5583 52.7531 51.0031 53.3083 50.3717 53.7671C49.4826 54.413 48.3448 54.7895 46.5284 54.9863C44.6875 55.1857 42.3103 55.1875 39 55.1875C35.6897 55.1875 33.3125 55.1857 31.4716 54.9863C29.6552 54.7895 28.5174 54.413 27.6283 53.7671C26.9969 53.3083 26.4417 52.7531 25.9829 52.1217C25.337 51.2326 24.9605 50.0948 24.7638 48.2784C24.5643 46.4375 24.5625 44.0603 24.5625 40.75V37.25C24.5625 35.7654 24.5626 34.4644 24.5814 33.3093C25.4121 33.3017 26.0236 33.2758 26.5741 33.1886C30.8798 32.5067 34.2567 29.1298 34.9386 24.8241C35.0258 24.2736 35.0517 23.6621 35.0593 22.8314C36.2144 22.8126 37.5154 22.8125 39 22.8125ZM26.1635 30.5959C25.8047 30.6528 25.3892 30.6744 24.6805 30.6826C24.8446 28.302 25.2208 26.9274 25.9829 25.8783C26.4417 25.2469 26.9969 24.6917 27.6283 24.2329C28.6774 23.4708 30.052 23.0946 32.4326 22.9305C32.4244 23.6392 32.4028 24.0547 32.3459 24.4135C31.8419 27.5959 29.3459 30.0919 26.1635 30.5959Z" fill="#667085"/>
<rect x="4" y="4" width="70" height="70" rx="35" stroke="#F2F4F7" stroke-width="7"/>
</svg>
