<svg width="31" height="23" viewBox="0 0 31 23" fill="none" xmlns="http://www.w3.org/2000/svg">
<path d="M30.295 8.07704L25.709 22.1238C25.6628 22.2654 25.5854 22.3948 25.4825 22.5024C25.3795 22.61 25.2536 22.693 25.1142 22.7452C24.9748 22.7975 24.8254 22.8177 24.6771 22.8043C24.5288 22.791 24.3854 22.7443 24.2575 22.668C24.229 22.6506 21.0597 20.8249 15.497 20.8249C9.93434 20.8249 6.76504 22.6506 6.73405 22.6692C6.60627 22.7449 6.46313 22.7908 6.3152 22.8038C6.16727 22.8167 6.01832 22.7962 5.87936 22.7439C5.7404 22.6915 5.61497 22.6086 5.51233 22.5013C5.40969 22.394 5.33247 22.265 5.28636 22.1238L0.702835 8.07332C0.610483 7.79206 0.603367 7.48976 0.68238 7.20446C0.761394 6.91916 0.923009 6.6636 1.1469 6.46991C1.37079 6.27623 1.64695 6.15308 1.94065 6.11595C2.23435 6.07882 2.53248 6.12936 2.79752 6.26123L9.01838 9.35988L14.2142 0.725802C14.3478 0.504342 14.5363 0.32115 14.7615 0.193986C14.9867 0.0668214 15.2409 0 15.4995 0C15.7581 0 16.0124 0.0668214 16.2376 0.193986C16.4628 0.32115 16.6513 0.504342 16.7848 0.725802L21.9807 9.35988L28.204 6.26123C28.4693 6.12917 28.7679 6.07869 29.0619 6.11618C29.3559 6.15366 29.6322 6.27743 29.856 6.47185C30.0797 6.66627 30.2408 6.92262 30.3189 7.20853C30.3971 7.49445 30.3887 7.7971 30.295 8.07828V8.07704Z" fill="#FFC52F"/>
</svg>
