<svg width="38" height="38" viewBox="0 0 38 38" fill="none" xmlns="http://www.w3.org/2000/svg">
<path fillRule="evenodd" clipRule="evenodd" d="M19.2108 8.25387C19.0703 8.24871 18.9297 8.24871 18.7892 8.25387C17.8618 8.28789 17.0268 8.60323 16.1112 9.12818C15.2189 9.63974 14.1916 10.3861 12.8883 11.333L12.8174 11.3845C11.514 12.3315 10.4868 13.0778 9.72451 13.7683C8.94232 14.4769 8.38435 15.1737 8.06542 16.0452C8.01711 16.1772 7.97365 16.3109 7.93514 16.4461C7.68092 17.3386 7.72279 18.2303 7.9391 19.2633C8.14989 20.27 8.54227 21.4775 9.04013 23.0098L10.7747 28.3482C11.1486 29.4988 12.2208 30.2779 13.4307 30.2779C14.973 30.2779 16.2233 29.0276 16.2233 27.4852V24.7363C16.2233 24.092 16.7456 23.5697 17.3899 23.5697H20.6101C21.2544 23.5697 21.7767 24.092 21.7767 24.7363V27.4852C21.7767 29.0276 23.027 30.2779 24.5694 30.2779C25.7792 30.2779 26.8515 29.4988 27.2253 28.3482L28.9599 23.0097C29.4578 21.4775 29.8501 20.2699 30.0609 19.2633C30.2772 18.2303 30.3191 17.3386 30.0649 16.4461C30.0264 16.3109 29.9829 16.1772 29.9346 16.0452C29.6157 15.1737 29.0577 14.4769 28.2755 13.7683C27.5132 13.0778 26.486 12.3315 25.1826 11.3845L25.1117 11.333C23.8084 10.3861 22.7811 9.63973 21.8889 9.12818C20.9733 8.60323 20.1382 8.28789 19.2108 8.25387ZM18.8442 9.75286C18.948 9.74905 19.052 9.74905 19.1558 9.75286C19.7512 9.7747 20.3443 9.97167 21.1428 10.4295C21.9566 10.896 22.9189 11.594 24.2655 12.5723C25.6121 13.5507 26.5733 14.2503 27.2684 14.88C27.9506 15.498 28.3212 16.0011 28.526 16.5607C28.5617 16.6582 28.5938 16.7571 28.6222 16.857C28.7855 17.4301 28.7814 18.055 28.5928 18.9558C28.4005 19.874 28.0341 21.0049 27.5198 22.5879L25.7987 27.8847C25.6257 28.4173 25.1294 28.7779 24.5694 28.7779C23.8555 28.7779 23.2767 28.1991 23.2767 27.4852V24.7363C23.2767 23.2636 22.0828 22.0697 20.6101 22.0697H17.3899C15.9172 22.0697 14.7233 23.2636 14.7233 24.7363V27.4852C14.7233 28.1991 14.1446 28.7779 13.4307 28.7779C12.8706 28.7779 12.3743 28.4173 12.2013 27.8847L10.4802 22.5879C9.9659 21.0049 9.59951 19.874 9.40725 18.9558C9.21861 18.055 9.21454 17.4301 9.37776 16.857C9.40623 16.7571 9.43834 16.6582 9.47405 16.5607C9.67883 16.0011 10.0494 15.498 10.7316 14.88C11.4268 14.2503 12.3879 13.5507 13.7345 12.5723C15.0811 11.594 16.0435 10.896 16.8572 10.4295C17.6557 9.97167 18.2488 9.7747 18.8442 9.75286Z" fill="#98A2B3"/>
</svg>
