<svg width="153" height="198" viewBox="0 0 153 198" fill="none" xmlns="http://www.w3.org/2000/svg" xmlns:xlink="http://www.w3.org/1999/xlink">
<path d="M91.295 8.07704L86.709 22.1238C86.6628 22.2654 86.5854 22.3948 86.4825 22.5024C86.3795 22.61 86.2536 22.693 86.1142 22.7452C85.9748 22.7975 85.8254 22.8177 85.6771 22.8043C85.5288 22.791 85.3854 22.7443 85.2575 22.668C85.229 22.6506 82.0597 20.8249 76.497 20.8249C70.9343 20.8249 67.765 22.6506 67.7341 22.6692C67.6063 22.7449 67.4631 22.7908 67.3152 22.8038C67.1673 22.8167 67.0183 22.7962 66.8794 22.7439C66.7404 22.6915 66.615 22.6086 66.5123 22.5013C66.4097 22.394 66.3325 22.265 66.2864 22.1238L61.7028 8.07332C61.6105 7.79206 61.6034 7.48976 61.6824 7.20446C61.7614 6.91916 61.923 6.6636 62.1469 6.46991C62.3708 6.27623 62.6469 6.15308 62.9407 6.11595C63.2344 6.07882 63.5325 6.12936 63.7975 6.26123L70.0184 9.35988L75.2142 0.725802C75.3478 0.504342 75.5363 0.32115 75.7615 0.193986C75.9867 0.0668214 76.2409 0 76.4995 0C76.7581 0 77.0124 0.0668214 77.2376 0.193986C77.4628 0.32115 77.6513 0.504342 77.7848 0.725802L82.9807 9.35988L89.204 6.26123C89.4693 6.12917 89.7679 6.07869 90.0619 6.11618C90.3559 6.15366 90.6322 6.27743 90.856 6.47185C91.0797 6.66627 91.2408 6.92262 91.3189 7.20853C91.3971 7.49445 91.3887 7.7971 91.295 8.07828V8.07704Z" fill="#FFC52F"/>
<g clipPath="url(#clip0_1639_33085)">
<circle cx="76.5" cy="107.309" r="73.7858" fill="#B3D6AE"/>
<circle cx="76.5" cy="107.309" r="73.7858" fill="url(#pattern0)"/>
<circle cx="76.5" cy="107.309" r="73.7858" stroke="#FDB022" stroke-width="5.42831"/>
</g>
<path d="M73.585 165.57C74.9741 163.477 78.0481 163.477 79.4372 165.57L83.0944 171.082C83.561 171.785 84.2652 172.297 85.0782 172.524L91.4507 174.298C93.8709 174.973 94.8209 177.896 93.2591 179.864L89.1469 185.046C88.6223 185.707 88.3533 186.535 88.3892 187.378L88.6703 193.987C88.7771 196.497 86.2901 198.304 83.9359 197.427L77.7372 195.117C76.9464 194.822 76.0758 194.822 75.285 195.117L69.0864 197.427C66.7321 198.304 64.2451 196.497 64.3519 193.987L64.6331 187.378C64.6689 186.535 64.3999 185.707 63.8753 185.046L59.7631 179.864C58.2013 177.896 59.1513 174.973 61.5715 174.298L67.944 172.524C68.757 172.297 69.4612 171.785 69.9278 171.082L73.585 165.57Z" fill="#FFB800"/>
<path d="M78.3456 188H76.5096V177.416H74.1516V175.832H78.3456V188Z" fill="white"/>
<defs>
<pattern id="pattern0" patternContentUnits="objectBoundingBox" width="1" height="1">
<use xlink:href="#image0_1639_33085" transform="translate(0.00653595 -0.00455737) scale(0.0031348)"/>
</pattern>
<clipPath id="clip0_1639_33085">
<rect y="30.8086" width="153" height="153" rx="76.5" fill="white"/>
</clipPath>

</defs>
</svg>
