<?xml version="1.0" encoding="utf-8"?>
<!-- Generator: Adobe Illustrator 27.9.0, SVG Export Plug-In . SVG Version: 6.00 Build 0)  -->
<svg version="1.1" id="Layer_1" xmlns="http://www.w3.org/2000/svg" xmlns:xlink="http://www.w3.org/1999/xlink" x="0px" y="0px"
	 viewBox="0 0 200 200" style="enable-background:new 0 0 200 200;" xml:space="preserve">
<style type="text/css">
	.st0{fill:#C598C5;stroke:#111212;}
	.st1{fill:#C3A94C;stroke:#111212;}
	.st2{fill:#F4E3AB;stroke:#111212;}
	.st3{fill:#AA71AE;stroke:#111212;}
</style>
<g>
	<g>
		<g>
			<polygon class="st0" points="99.98,34.02 13.12,99.08 99.98,164.14 186.84,99.08 			"/>
		</g>
		<g>
			<polygon class="st1" points="99.98,164.14 13.12,99.08 13.12,186.33 186.84,186.33 186.84,99.08 			"/>
		</g>
		<g>
			<polygon class="st2" points="13.12,186.33 186.84,186.33 99.98,121.26 			"/>
		</g>
		<g>
			<path class="st3" d="M186.84,20.74v58.81c0,4.46-3.67,8.13-8.17,8.13H98.3l-26.99,19.13V87.68H58.86c-4.5,0-8.17-3.67-8.17-8.13
				V20.74c0-4.46,3.67-8.13,8.17-8.13h119.81C183.17,12.61,186.84,16.28,186.84,20.74z"/>
		</g>
	</g>
	<g>
		<g>
			<rect x="143.21" y="28.46" class="st2" width="24.41" height="5.39"/>
		</g>
		<g>
			<rect x="69.9" y="28.46" class="st2" width="57.02" height="5.39"/>
		</g>
		<g>
			<rect x="107.9" y="47.44" class="st2" width="59.72" height="5.39"/>
		</g>
		<g>
			<rect x="69.9" y="47.44" class="st2" width="21.72" height="5.39"/>
		</g>
		<g>
			<rect x="69.9" y="66.43" class="st2" width="76" height="5.46"/>
		</g>
	</g>
</g>
</svg>
