<svg width="38" height="38" viewBox="0 0 38 38" fill="none" xmlns="http://www.w3.org/2000/svg">
<path fillRule="evenodd" clipRule="evenodd" d="M20.6982 14.5123C20.1688 12.8292 17.8317 12.8292 17.3023 14.5123C17.2582 14.6524 17.142 14.7247 17.0353 14.7247C15.2598 14.7247 14.6354 16.9975 15.9779 18.005C16.0794 18.0812 16.1331 18.2294 16.0879 18.3732C15.8295 19.1945 16.162 19.9661 16.7284 20.3912C17.2983 20.8189 18.1413 20.918 18.8432 20.3912C18.9386 20.3196 19.0619 20.3196 19.1573 20.3912C19.8592 20.918 20.7021 20.8189 21.2721 20.3912C21.8385 19.9661 22.1709 19.1945 21.9126 18.3732C21.8674 18.2294 21.9211 18.0812 22.0226 18.005C23.3651 16.9975 22.7407 14.7247 20.9652 14.7247C20.8585 14.7247 20.7422 14.6524 20.6982 14.5123ZM18.7332 14.9624C18.8223 14.6792 19.1782 14.6792 19.2673 14.9624C19.4998 15.7016 20.1768 16.2247 20.9652 16.2247C21.042 16.2247 21.0913 16.2475 21.128 16.2768C21.1698 16.3102 21.2095 16.3648 21.2323 16.4371C21.2782 16.5831 21.2386 16.7179 21.1222 16.8053C20.4996 17.2726 20.2503 18.0877 20.4817 18.8233C20.5326 18.9851 20.475 19.1139 20.3717 19.1915C20.3188 19.2312 20.2636 19.2484 20.2176 19.2499C20.1779 19.2511 20.1248 19.2419 20.0576 19.1915C19.4288 18.7195 18.5717 18.7195 17.9428 19.1915C17.8757 19.2419 17.8226 19.2511 17.7829 19.2499C17.7369 19.2484 17.6817 19.2312 17.6288 19.1915C17.5255 19.1139 17.4679 18.9851 17.5188 18.8233C17.7502 18.0877 17.5009 17.2726 16.8783 16.8053C16.7619 16.7179 16.7223 16.5831 16.7682 16.4371C16.791 16.3648 16.8307 16.3102 16.8725 16.2768C16.9092 16.2475 16.9584 16.2247 17.0353 16.2247C17.8236 16.2247 18.5007 15.7016 18.7332 14.9624Z" fill="#98A2B3"/>
<path fillRule="evenodd" clipRule="evenodd" d="M18.8385 8.24996C17.1322 8.24969 16.091 8.24952 15.2235 8.5314C13.473 9.10017 12.1006 10.4726 11.5318 12.2231L11.5232 12.25H11.2311C7.52558 12.25 5.93377 16.952 8.8773 19.203L8.88795 19.2111L11.3549 20.9615C11.4443 21.0249 11.537 21.0833 11.6327 21.1364C11.6341 21.14 11.6355 21.1436 11.6368 21.1471C11.6465 21.1722 11.6563 21.1973 11.6664 21.2223C11.9219 21.8569 12.4206 22.6184 12.9002 23.1062C13.6818 23.9012 14.4907 24.2537 15.7823 24.8166L15.8682 24.854C16.4245 25.0966 16.9871 25.3166 17.5094 25.4772C17.7568 25.5532 18.0066 25.6195 18.2503 25.6677V28.25H15.0003C14.5861 28.25 14.2503 28.5858 14.2503 29C14.2503 29.4142 14.5861 29.75 15.0003 29.75H23.0003C23.4146 29.75 23.7503 29.4142 23.7503 29C23.7503 28.5858 23.4146 28.25 23.0003 28.25H19.7503V25.6677C19.9941 25.6195 20.2439 25.5532 20.4913 25.4772C21.0136 25.3166 21.5762 25.0966 22.1325 24.854L22.2184 24.8166C23.51 24.2537 24.3189 23.9012 25.1005 23.1062C25.5801 22.6184 26.0788 21.8569 26.3343 21.2223C26.3455 21.1945 26.3564 21.1666 26.3671 21.1387C26.4648 21.0831 26.5598 21.0227 26.6516 20.9575L29.1129 19.2111L29.1235 19.203C32.0671 16.952 30.4753 12.25 26.7697 12.25H26.4775L26.4689 12.2231C25.9001 10.4726 24.5277 9.10017 22.7772 8.5314C21.9097 8.24952 20.8685 8.24969 19.1622 8.24996H18.8385ZM9.77849 18.0038C7.98801 16.6212 8.96421 13.75 11.2311 13.75H11.2834C11.2503 14.3351 11.2503 15.0368 11.2503 15.916L11.2503 17.416C11.2503 18.041 11.2502 18.5801 11.2703 19.0623L9.77849 18.0038ZM28.2224 18.0038L26.7304 19.0624C26.7505 18.5803 26.7504 18.0416 26.7504 17.4169L26.7504 15.916C26.7504 15.0369 26.7504 14.335 26.7173 13.75H26.7697C29.0366 13.75 30.0128 16.6212 28.2224 18.0038ZM15.687 9.95798C16.2987 9.75923 17.0807 9.74997 19.0003 9.74997C20.92 9.74997 21.702 9.75923 22.3137 9.95798C23.6075 10.3784 24.6219 11.3928 25.0423 12.6866C25.0846 12.8168 25.1192 12.9593 25.1471 13.1246C25.2477 13.7222 25.2503 14.5281 25.2503 16V17.3004C25.2503 18.9474 25.2429 19.7174 25.0389 20.3896C25.0111 20.4814 24.9793 20.5717 24.9429 20.6621C24.7612 21.1133 24.3719 21.7077 24.0309 22.0546C23.4714 22.6236 22.9295 22.8702 21.533 23.479C21.0068 23.7085 20.5003 23.9051 20.0506 24.0433C19.59 24.1849 19.2364 24.25 19.0003 24.25C18.7643 24.25 18.4107 24.1849 17.9501 24.0433C17.5004 23.9051 16.9939 23.7085 16.4677 23.479C15.0712 22.8702 14.5293 22.6236 13.9698 22.0546C13.6288 21.7077 13.2395 21.1133 13.0578 20.6621C13.0203 20.569 12.9878 20.476 12.9593 20.3813C12.7577 19.7106 12.7503 18.9404 12.7503 17.3004V16C12.7503 14.5281 12.753 13.7222 12.8536 13.1246C12.8815 12.9593 12.9161 12.8168 12.9584 12.6866C13.3788 11.3928 14.3932 10.3784 15.687 9.95798Z" fill="#98A2B3"/>
</svg>
