<svg width="38" height="38" viewBox="0 0 38 38" fill="none" xmlns="http://www.w3.org/2000/svg">
<path fillRule="evenodd" clipRule="evenodd" d="M15.2325 11.1756L17.5005 10.3655C18.0703 10.1615 18.5208 10.0001 19 10.0001C19.4793 10.0001 19.9298 10.1615 20.4996 10.3655L22.7676 11.1756C24.9151 11.9425 26.603 12.5453 27.7481 13.1377C28.0248 13.2809 28.2917 13.4342 28.5363 13.6022C28.8408 13.8113 29.1109 14.043 29.3227 14.3059C29.6212 14.6764 29.8039 15.1087 29.8039 15.6266C29.8039 15.6664 29.8027 15.7058 29.8006 15.7447C29.7703 16.2953 29.5289 16.7462 29.163 17.1284C29.0372 17.2606 28.8972 17.3838 28.7472 17.499C28.2453 17.8843 27.5657 18.2328 26.75 18.5818L26.75 20.7885C26.7503 22.4947 26.7504 23.5359 26.4686 24.4035C25.8998 26.154 24.5274 27.5264 22.7768 28.0952C21.9093 28.3771 20.8681 28.3769 19.1618 28.3766H18.8382C17.1319 28.3769 16.0907 28.3771 15.2231 28.0952C13.4726 27.5264 12.1002 26.154 11.5314 24.4035C11.2495 23.5359 11.2497 22.4947 11.25 20.7885L11.25 18.5806C10.8819 18.423 10.5487 18.2688 10.252 18.1153C10.0798 18.0263 9.91148 17.9333 9.74993 17.8352V22.6265C9.74993 23.0407 9.41415 23.3765 8.99993 23.3765C8.58572 23.3765 8.19629 23.0524 8.19629 22.6382V15.6265C8.19629 14.4462 9.14511 13.7103 10.2519 13.1377C11.3971 12.5453 13.0849 11.9425 15.2325 11.1756ZM9.97464 16.1459C10.0122 16.1821 10.0546 16.2196 10.1025 16.2586C10.2884 16.4103 10.5565 16.584 10.9411 16.783C11.9852 17.3231 13.5762 17.8931 15.7995 18.6872L17.9069 19.4398C18.622 19.6952 18.8135 19.7529 19 19.7529C19.1865 19.7529 19.3781 19.6952 20.0931 19.4398L22.2005 18.6872C24.4239 17.8931 26.0149 17.3231 27.059 16.783C28.1524 16.2173 28.3038 15.8556 28.3038 15.6265C28.3038 15.5249 28.274 15.3972 28.1456 15.2373C28.0387 15.1042 27.8634 14.9486 27.5799 14.7672C27.4359 14.675 27.264 14.5761 27.059 14.4701C26.0149 13.93 24.4239 13.36 22.2006 12.5659L20.0932 11.8132C19.3782 11.5579 19.1866 11.5002 19.0001 11.5002C18.8136 11.5002 18.622 11.5579 17.907 11.8132L15.7996 12.5659C13.5763 13.36 11.9853 13.93 10.9412 14.4701C9.84769 15.0357 9.69635 15.3974 9.69635 15.6266L9.69635 15.6279L9.69816 15.6693C9.70864 15.7914 9.76833 15.9473 9.97464 16.1459ZM12.75 20.6266V19.1768C13.4902 19.4552 14.3199 19.7515 15.2325 20.0775L17.5005 20.8875C18.0703 21.0916 18.5209 21.2529 19.0001 21.2529C19.4793 21.2529 19.9299 21.0916 20.4997 20.8875L22.7993 20.0662C23.7035 19.7433 24.5226 19.4507 25.25 19.1775V20.6266C25.25 22.5463 25.2407 23.3282 25.042 23.9399C24.6216 25.2338 23.6072 26.2482 22.3133 26.6686C21.7016 26.8674 20.9197 26.8766 19 26.8766C17.0803 26.8766 16.2984 26.8674 15.6867 26.6686C14.3928 26.2482 13.3784 25.2338 12.958 23.9399C12.7592 23.3282 12.75 22.5463 12.75 20.6266Z" fill="#98A2B3"/>
</svg>
