<?xml version="1.0" encoding="utf-8"?>
<!-- Generator: Adobe Illustrator 27.9.0, SVG Export Plug-In . SVG Version: 6.00 Build 0)  -->
<svg version="1.1" id="Layer_1" xmlns="http://www.w3.org/2000/svg" xmlns:xlink="http://www.w3.org/1999/xlink" x="0px" y="0px"
	 viewBox="0 0 200 200" style="enable-background:new 0 0 200 200;" xml:space="preserve">
<style type="text/css">
	.st0{fill:#C7C6C6;}
	.st1{fill:#AA71AE;stroke:#111212;}
	.st2{fill:#F4E3AB;stroke:#111212;}
	.st3{fill:#C598C5;stroke:#111212;}
</style>
<g>
	<g>
		<rect x="111.44" y="149.28" class="st0" width="16.06" height="19.51"/>
	</g>
	<g>
		<path class="st1" d="M108.92,160.28l-29.8,8.52h80.71l-29.8-8.52C123.13,158.35,115.82,158.35,108.92,160.28z"/>
	</g>
	<g>
		<path class="st2" d="M176.87,31.2H62.08c-5.11,0-9.21,4.11-9.21,9.22v87.25h133.22V40.42C186.08,35.31,181.93,31.2,176.87,31.2z"
			/>
	</g>
	<g>
		<path class="st1" d="M52.86,127.68v12.39c0,5.11,4.11,9.21,9.21,9.21h114.79c5.07,0,9.21-4.11,9.21-9.21v-12.39H52.86z"/>
	</g>
	<g>
		<path class="st2" d="M82.45,71.62H23.29c-5.15,0-9.37,4.18-9.37,9.37v78.36c0,5.19,4.22,9.44,9.37,9.44h59.16
			c5.19,0,9.4-4.26,9.4-9.44V81C91.85,75.8,87.63,71.62,82.45,71.62z"/>
	</g>
	<g>
		<path class="st1" d="M56.23,160.43c0,1.86-1.51,3.33-3.37,3.33s-3.37-1.47-3.37-3.33c0-1.86,1.51-3.4,3.37-3.4
			S56.23,158.58,56.23,160.43z"/>
	</g>
	<g>
		<path class="st2" d="M122.82,138.45c0,1.78-1.51,3.33-3.36,3.33c-1.86,0-3.33-1.55-3.33-3.33c0-1.86,1.47-3.41,3.33-3.41
			C121.31,135.04,122.82,136.58,122.82,138.45z"/>
	</g>
	<g>
		<rect x="65.99" y="44.37" class="st1" width="106.97" height="14.79"/>
	</g>
	<g>
		<rect x="27.47" y="85.56" class="st1" width="50.79" height="14.79"/>
	</g>
	<g>
		<rect x="27.47" y="112.19" class="st3" width="50.79" height="6.74"/>
	</g>
	<g>
		<rect x="27.47" y="128.84" class="st3" width="50.79" height="6.66"/>
	</g>
	<g>
		<rect x="27.47" y="145.42" class="st3" width="40.11" height="6.73"/>
	</g>
	<g>
		<rect x="105.21" y="71.93" class="st3" width="67.75" height="6.74"/>
	</g>
	<g>
		<rect x="105.21" y="88.04" class="st3" width="67.75" height="6.74"/>
	</g>
	<g>
		<rect x="105.21" y="104.22" class="st3" width="54.35" height="6.66"/>
	</g>
</g>
</svg>
