<svg width="128" height="128" viewBox="0 0 128 128" fill="none" xmlns="http://www.w3.org/2000/svg">
<path d="M36.9868 23.2294L26.1177 35.3256C24.9478 36.6275 25.8965 38.6979 27.6464 38.6619L100.6 37.164C102.351 37.1281 103.213 35.0173 101.988 33.7654L90.2673 21.7925C90.074 21.5951 89.8078 21.4865 89.5317 21.4923L38.4324 22.5665C37.8796 22.5782 37.3563 22.8181 36.9868 23.2294Z" fill="black"/>
<path d="M55.4875 95.683L24.3101 38.8895L38.1963 24.5745L69.5333 82.6127L55.4875 95.683Z" fill="white"/>
<path fillRule="evenodd" clipRule="evenodd" d="M22.5569 39.852C22.1344 39.0824 22.2633 38.1272 22.8746 37.497L36.7608 23.1819C37.2044 22.7246 37.8394 22.506 38.4706 22.5934C39.1017 22.6807 39.6535 23.0636 39.9562 23.6243L71.2933 81.6625C71.726 82.4639 71.5626 83.4564 70.8959 84.0769L56.85 97.1471C56.3986 97.5673 55.7785 97.7556 55.1696 97.6576C54.5608 97.5595 54.0312 97.186 53.7344 96.6454L22.5569 39.852ZM55.4876 95.683L69.5334 82.6127L38.1963 24.5745L24.3101 38.8895L55.4876 95.683Z" fill="black"/>
<path fillRule="evenodd" clipRule="evenodd" d="M36.6985 50.4981C37.181 50.2293 37.79 50.4025 38.0588 50.8849L49.4444 71.3202C49.7132 71.8027 49.54 72.4117 49.0576 72.6805C48.5751 72.9493 47.9661 72.7761 47.6973 72.2936L36.3117 51.8584C36.0429 51.3759 36.2161 50.7669 36.6985 50.4981Z" fill="black"/>
<path d="M76.556 90.7039L103.69 37.0743L89.6441 23.4854L60.7012 80.3307L76.556 90.7039Z" fill="white"/>
<path fillRule="evenodd" clipRule="evenodd" d="M105.475 37.9772C105.87 37.1951 105.711 36.2464 105.081 35.6369L91.035 22.048C90.579 21.6068 89.9407 21.4082 89.3148 21.5127C88.689 21.6172 88.1499 22.0125 87.862 22.5779L58.9191 79.4232C58.456 80.3329 58.7522 81.4454 59.6064 82.0043L75.4612 92.3775C75.9373 92.6891 76.5236 92.783 77.0733 92.6359C77.6229 92.4888 78.0839 92.1145 78.3408 91.6068L105.475 37.9772ZM76.5562 90.7039L60.7014 80.3307L89.6443 23.4854L103.69 37.0743L76.5562 90.7039Z" fill="black"/>
<path fillRule="evenodd" clipRule="evenodd" d="M87.6353 36.9014C88.1318 37.1435 88.338 37.7421 88.0959 38.2385L79.9026 55.0432C79.6605 55.5396 79.0619 55.7458 78.5654 55.5038C78.069 55.2617 77.8628 54.6631 78.1048 54.1667L86.2982 37.362C86.5403 36.8656 87.1389 36.6594 87.6353 36.9014Z" fill="black"/>
<path d="M85.5586 83.7654C85.5586 95.225 76.2687 104.515 64.8091 104.515C53.3495 104.515 44.0596 95.225 44.0596 83.7654C44.0596 72.3057 53.3495 63.0159 64.8091 63.0159C76.2687 63.0159 85.5586 72.3057 85.5586 83.7654Z" fill="white"/>
<path fillRule="evenodd" clipRule="evenodd" d="M87.5586 83.7654C87.5586 96.3296 77.3733 106.515 64.8091 106.515C52.2449 106.515 42.0596 96.3296 42.0596 83.7654C42.0596 71.2012 52.2449 61.0159 64.8091 61.0159C77.3733 61.0159 87.5586 71.2012 87.5586 83.7654ZM64.8091 104.515C76.2687 104.515 85.5586 95.225 85.5586 83.7654C85.5586 72.3057 76.2687 63.0159 64.8091 63.0159C53.3495 63.0159 44.0596 72.3057 44.0596 83.7654C44.0596 95.225 53.3495 104.515 64.8091 104.515Z" fill="black"/>
<path fillRule="evenodd" clipRule="evenodd" d="M78.0713 83.7653C78.0713 91.09 72.1334 97.028 64.8086 97.028C57.4838 97.028 51.5459 91.09 51.5459 83.7653C51.5459 76.4405 57.4838 70.5026 64.8086 70.5026C72.1334 70.5026 78.0713 76.4405 78.0713 83.7653ZM64.8086 95.028C71.0288 95.028 76.0713 89.9855 76.0713 83.7653C76.0713 77.545 71.0288 72.5026 64.8086 72.5026C58.5884 72.5026 53.5459 77.545 53.5459 83.7653C53.5459 89.9855 58.5884 95.028 64.8086 95.028Z" fill="black"/>
</svg>
