<svg width="24" height="25" viewBox="0 0 24 25" fill="none" xmlns="http://www.w3.org/2000/svg">
<path fillRule="evenodd" clip-rule="evenodd" d="M11.1 1.75C7.70442 1.75 5.07724 4.72603 5.49841 8.09536L5.57776 8.73021C5.69388 9.65916 5.35455 10.5871 4.66654 11.2219C3.24086 12.5375 2.84477 14.6315 3.69142 16.3769L3.79477 16.59C4.54088 18.1282 6.05582 19.1355 7.74702 19.2408L7.9353 19.5636C8.9481 21.2998 10.5261 22.25 12.1831 22.25C13.8402 22.25 15.4182 21.2998 16.431 19.5636L16.6222 19.2358C18.043 19.1236 19.3384 18.3514 20.1111 17.1373C21.2932 15.2799 20.9801 12.8432 19.3668 11.345L19.3229 11.3042C19.1263 11.1216 18.9563 10.9169 18.8151 10.6959C18.592 10.3469 18.1282 10.2448 17.7792 10.4679C17.4302 10.691 17.3281 11.1548 17.5512 11.5038C17.7602 11.8307 18.0116 12.1335 18.3022 12.4033L18.3461 12.4441C19.4289 13.4497 19.6391 15.0852 18.8456 16.332C18.2835 17.2152 17.3092 17.75 16.2623 17.75H16.1974C16.1946 17.7499 16.1917 17.7499 16.1889 17.7499C16.1827 17.7499 16.1765 17.7499 16.1703 17.75H8.19595C8.18695 17.7498 8.17793 17.7498 8.16891 17.75H8.04147C6.8079 17.75 5.68275 17.0452 5.14438 15.9353L5.04102 15.7223C4.48294 14.5718 4.74404 13.1915 5.68379 12.3243C6.72755 11.3611 7.24234 9.95345 7.06618 8.54416L6.98682 7.90931C6.67757 5.43526 8.60667 3.25 11.1 3.25H12.8029C13.9214 3.25 14.9242 3.68763 15.6655 4.3947C15.9652 4.68058 16.44 4.66934 16.7259 4.36959C17.0117 4.06985 17.0005 3.59511 16.7008 3.30923C15.6926 2.34774 14.3235 1.75 12.8029 1.75H11.1ZM12.1831 20.75C11.262 20.75 10.2792 20.2877 9.51988 19.25H14.8464C14.0871 20.2877 13.1043 20.75 12.1831 20.75Z" fill="#667085"/>
<path d="M19.1833 7.5C19.1833 8.60457 18.2878 9.5 17.1833 9.5C16.0787 9.5 15.1833 8.60457 15.1833 7.5C15.1833 6.39543 16.0787 5.5 17.1833 5.5C18.2878 5.5 19.1833 6.39543 19.1833 7.5Z" fill="#667085"/>
</svg>
