<svg width="38" height="38" viewBox="0 0 38 38" fill="none" xmlns="http://www.w3.org/2000/svg">
<path fillRule="evenodd" clipRule="evenodd" d="M24.7312 8.49099C23.5355 7.99573 22.3748 8.30485 21.5492 9.0344C20.7428 9.74702 20.25 10.8554 20.25 12.0331V12.9988C20.25 15.8983 22.6005 18.2488 25.5 18.2488H26.4657C27.6434 18.2488 28.7518 17.7561 29.4644 16.9496C30.194 16.124 30.5031 14.9633 30.0078 13.7677C29.5178 12.5847 28.7997 11.5099 27.8943 10.6045C26.9889 9.69916 25.9141 8.98098 24.7312 8.49099ZM21.75 12.0331C21.75 11.2588 22.0777 10.5692 22.5425 10.1584C22.9881 9.76462 23.5495 9.62511 24.1571 9.87681C25.1581 10.2914 26.0676 10.8991 26.8336 11.6652C27.5997 12.4313 28.2074 13.3407 28.622 14.3417C28.8737 14.9494 28.7342 15.5107 28.3404 15.9564C27.9297 16.4212 27.24 16.7488 26.4657 16.7488H25.5C23.4289 16.7488 21.75 15.0699 21.75 12.9988V12.0331Z" fill="#98A2B3"/>
<path fillRule="evenodd" clipRule="evenodd" d="M18.75 13.4988C18.75 12.0395 17.5133 10.613 15.8511 10.9886C14.6909 11.2507 13.5823 11.7244 12.5832 12.392C10.9798 13.4633 9.73013 14.9861 8.99218 16.7677C8.25422 18.5492 8.06114 20.5096 8.43735 22.401C8.81355 24.2923 9.74215 26.0296 11.1057 27.3931C12.4693 28.7567 14.2066 29.6853 16.0979 30.0615C17.9892 30.4377 19.9496 30.2446 21.7312 29.5066C23.5127 28.7687 25.0355 27.519 26.1068 25.9156C26.7744 24.9165 27.2481 23.8079 27.5102 22.6477C27.8858 20.9855 26.4594 19.7488 25 19.7488H23C20.6528 19.7488 18.75 17.846 18.75 15.4988V13.4988ZM16.1817 12.4517C16.6743 12.3404 17.25 12.749 17.25 13.4988V15.4988C17.25 18.6745 19.8244 21.2488 23 21.2488H25C25.7498 21.2488 26.1584 21.8245 26.0471 22.3171C25.8253 23.2989 25.4245 24.2368 24.8596 25.0823C23.9531 26.439 22.6646 27.4964 21.1571 28.1208C19.6497 28.7452 17.9909 28.9086 16.3905 28.5903C14.7902 28.272 13.3202 27.4862 12.1664 26.3325C11.0126 25.1787 10.2269 23.7087 9.90853 22.1083C9.5902 20.508 9.75358 18.8492 10.378 17.3417C11.0024 15.8342 12.0598 14.5457 13.4166 13.6392C14.262 13.0743 15.2 12.6735 16.1817 12.4517Z" fill="#98A2B3"/>
</svg>
