<?xml version="1.0" encoding="utf-8"?>
<!-- Generator: Adobe Illustrator 27.9.0, SVG Export Plug-In . SVG Version: 6.00 Build 0)  -->
<svg version="1.1" id="Layer_1" xmlns="http://www.w3.org/2000/svg" xmlns:xlink="http://www.w3.org/1999/xlink" x="0px" y="0px"
	 viewBox="0 0 200 200" style="enable-background:new 0 0 200 200;" xml:space="preserve">
<style type="text/css">
	.st0{fill:#AA71AE;stroke:#111212;}
	.st1{fill:#F4E3AB;stroke:#111212;}
	.st2{fill:#C3A94C;stroke:#111212;}
	.st3{fill:#FFFFFF;stroke:#111212;}
	.st4{fill:#C598C5;stroke:#111212;}
</style>
<g>
	<g>
		<g>
			<polygon class="st0" points="157.91,25.89 63.93,25.89 63.93,183.02 187.98,183.02 187.98,56.03 157.91,56.03 			"/>
		</g>
		<g>
			<polygon class="st1" points="157.91,56.03 187.98,56.03 157.91,25.89 			"/>
		</g>
	</g>
	<g>
		<g>
			<rect x="145.2" y="68.52" class="st2" width="27.75" height="6.63"/>
		</g>
		<g>
			<rect x="145.2" y="87.17" class="st2" width="27.75" height="6.62"/>
		</g>
		<g>
			<rect x="145.2" y="105.82" class="st2" width="11.88" height="6.63"/>
		</g>
		<g>
			<rect x="145.2" y="124.47" class="st2" width="27.75" height="6.62"/>
		</g>
		<g>
			<rect x="145.2" y="143.12" class="st2" width="19.83" height="6.63"/>
		</g>
		<g>
			<rect x="81.75" y="161.62" class="st2" width="91.2" height="6.63"/>
		</g>
	</g>
	<g>
		<g>
			<rect x="34.59" y="71.87" class="st2" width="94.32" height="74.52"/>
		</g>
		<g>
			<rect x="18.72" y="56.03" class="st1" width="94.32" height="74.53"/>
		</g>
		<g>
			<path class="st3" d="M81.86,83.6c-5.02,0-9.14-3.88-9.55-8.75c-0.04-0.16-0.04-0.3-0.04-0.46V55.96
				c0-8.75,7.12-15.91,15.87-15.91s15.87,7.16,15.87,15.91h-5.29c0-5.86-4.76-10.59-10.58-10.59c-5.86,0-10.59,4.72-10.59,10.59V74
				c0,2.36,1.91,4.34,4.3,4.34c2.36,0,4.3-1.98,4.3-4.34v-7.46h5.29V74C91.46,79.33,87.11,83.6,81.86,83.6z"/>
		</g>
		<g>
			<polygon class="st0" points="45.17,80.93 18.72,109.55 18.72,130.56 46.16,130.56 68.58,106.28 			"/>
		</g>
		<g>
			<polygon class="st4" points="79.57,94.4 46.16,130.56 113.03,130.56 			"/>
		</g>
	</g>
</g>
</svg>
