<svg width="35" height="35" viewBox="0 0 35 35" fill="none" xmlns="http://www.w3.org/2000/svg">
<path d="M14.1923 7.50106C15.46 4.62595 19.5394 4.62595 20.8071 7.50106C21.4428 8.94269 22.939 9.80653 24.5053 9.63621C27.6291 9.29652 29.6688 12.8294 27.8127 15.3648C26.8821 16.6361 26.8821 18.3638 27.8127 19.6351C29.6688 22.1706 27.6291 25.7034 24.5053 25.3638C22.939 25.1934 21.4428 26.0573 20.8071 27.4989C19.5394 30.374 15.46 30.374 14.1923 27.4989C13.5566 26.0573 12.0604 25.1934 10.4941 25.3638C7.37033 25.7034 5.33061 22.1706 7.18667 19.6351C8.11734 18.3638 8.11734 16.6361 7.18667 15.3648C5.33061 12.8294 7.37033 9.29652 10.4941 9.63621C12.0604 9.80653 13.5566 8.94269 14.1923 7.50106Z" fill="#FEB273"/>
<path d="M14.2297 23.209C14.3949 23.3633 14.6496 23.3664 14.8289 23.2288C17.1552 21.4417 19.167 22.2761 20.1549 23.1504C20.3443 23.318 20.6349 23.3358 20.8197 23.1631L23.6418 20.5257C23.8036 20.3744 23.8305 20.1246 23.6776 19.9645C22.2858 18.5067 18.7819 17.7207 17.689 17.7207C16.185 17.7207 14.3398 17.6898 11.4682 19.9447C11.2584 20.1095 11.2484 20.4228 11.4433 20.6049L14.2297 23.209Z" fill="white"/>
<path fillRule="evenodd" clipRule="evenodd" d="M17.6239 17.499C17.6456 17.499 17.6673 17.4991 17.6888 17.4991C18.2673 17.4991 19.441 17.7026 20.6384 18.0848C21.8321 18.4658 23.1015 19.0403 23.8376 19.8113C24.0895 20.0751 24.0294 20.4663 23.7928 20.6874L20.9708 23.3248C20.6896 23.5875 20.2689 23.5471 20.008 23.3161C19.5412 22.903 18.8331 22.5006 17.9709 22.4118C17.1148 22.3236 16.0859 22.5422 14.9636 23.4043C14.7052 23.6028 14.3286 23.6046 14.0783 23.3707L11.2918 20.7666C11.0001 20.4939 11.0121 20.021 11.3312 19.7704C12.7862 18.6278 13.9916 18.0564 15.0331 17.7732C16.0434 17.4985 16.8882 17.4988 17.6239 17.499ZM15.1494 18.2007C14.1744 18.4658 13.0214 19.0064 11.6048 20.1188C11.5044 20.1977 11.4964 20.3513 11.5943 20.4429L14.3808 23.047C14.4608 23.1217 14.5938 23.1297 14.6938 23.0529C15.8979 22.128 17.038 21.8703 18.0164 21.971C18.9887 22.0712 19.7805 22.5231 20.3016 22.9844C20.4193 23.0886 20.5799 23.0837 20.6683 23.0011L23.4903 20.3637C23.5774 20.2823 23.5712 20.1739 23.5172 20.1173C22.8615 19.4306 21.683 18.8832 20.5037 18.5068C19.3279 18.1316 18.2032 17.9421 17.6888 17.9421C17.6705 17.9421 17.6521 17.9421 17.6336 17.9421C16.896 17.9419 16.1019 17.9417 15.1494 18.2007Z" fill="#111212"/>
<path d="M20.7703 12.2324C20.6051 12.0781 20.3504 12.075 20.1711 12.2126C17.8448 13.9997 15.833 13.1653 14.8451 12.291C14.6557 12.1234 14.3651 12.1057 14.1803 12.2783L11.3582 14.9157C11.1964 15.067 11.1695 15.3168 11.3224 15.4769C12.7142 16.9347 16.2181 17.7207 17.311 17.7207C18.815 17.7207 20.6602 17.7516 23.5318 15.4967C23.7416 15.3319 23.7516 15.0187 23.5567 14.8365L20.7703 12.2324Z" fill="white"/>
<path fillRule="evenodd" clipRule="evenodd" d="M17.3761 17.9424C17.3544 17.9424 17.3327 17.9424 17.3112 17.9424C16.7327 17.9424 15.559 17.7388 14.3616 17.3566C13.1679 16.9756 11.8985 16.4011 11.1624 15.6301C10.9105 15.3663 10.9706 14.9751 11.2072 14.754L14.0292 12.1166C14.3104 11.8539 14.7311 11.8943 14.992 12.1253C15.4588 12.5384 16.1669 12.9408 17.0291 13.0297C17.8852 13.1179 18.9141 12.8992 20.0364 12.0371C20.2949 11.8386 20.6714 11.8368 20.9217 12.0707L23.7082 14.6748C23.9999 14.9475 23.9879 15.4204 23.6688 15.671C22.2138 16.8136 21.0084 17.385 19.9669 17.6682C18.9566 17.9429 18.1118 17.9426 17.3761 17.9424ZM19.8506 17.2407C20.8256 16.9756 21.9786 16.435 23.3952 15.3226C23.4956 15.2437 23.5036 15.0901 23.4057 14.9985L20.6192 12.3944C20.5392 12.3197 20.4062 12.3117 20.3062 12.3885C19.1021 13.3135 17.962 13.5711 16.9836 13.4704C16.0113 13.3702 15.2195 12.9183 14.6984 12.4571C14.5807 12.3528 14.4201 12.3577 14.3317 12.4403L11.5097 15.0777C11.4226 15.1591 11.4288 15.2675 11.4828 15.3241C12.1385 16.0108 13.317 16.5582 14.4963 16.9346C15.6721 17.3099 16.7968 17.4993 17.3112 17.4993C17.3295 17.4993 17.3479 17.4993 17.3664 17.4993C18.104 17.4995 18.8981 17.4997 19.8506 17.2407Z" fill="#111212"/>
</svg>
