<svg width="24" height="23" viewBox="0 0 24 23" fill="none" xmlns="http://www.w3.org/2000/svg">
<path fillRule="evenodd" clipRule="evenodd" d="M10.5 0.25C5.11522 0.25 0.75 4.61522 0.75 10C0.75 15.3848 5.11522 19.75 10.5 19.75C15.8848 19.75 20.25 15.3848 20.25 10C20.25 4.61522 15.8848 0.25 10.5 0.25ZM2.25 10C2.25 5.44365 5.94365 1.75 10.5 1.75C15.0563 1.75 18.75 5.44365 18.75 10C18.75 14.5563 15.0563 18.25 10.5 18.25C5.94365 18.25 2.25 14.5563 2.25 10Z" fill="#F9FAFB"/>
<path d="M19.0304 17.4698C18.7375 17.1769 18.2626 17.1769 17.9697 17.4698C17.6768 17.7626 17.6768 18.2375 17.9697 18.5304L21.9696 22.5304C22.2625 22.8233 22.7374 22.8233 23.0303 22.5304C23.3232 22.2375 23.3232 21.7626 23.0303 21.4697L19.0304 17.4698Z" fill="#F9FAFB"/>
</svg>
