<svg width="56" height="44" viewBox="0 0 56 44" fill="none" xmlns="http://www.w3.org/2000/svg">
<rect x="0.5" y="0.5" width="55" height="43" rx="21.5" fill="#FCFCFD"/>
<path fillRule="evenodd" clip-rule="evenodd" d="M34 12.75C32.7574 12.75 31.75 13.7574 31.75 15C31.75 15.3947 31.8516 15.7657 32.0302 16.0882C32.0398 16.1024 32.049 16.117 32.0578 16.132C32.0665 16.1469 32.0746 16.1619 32.0821 16.1772C32.478 16.8208 33.1889 17.25 34 17.25C35.2426 17.25 36.25 16.2426 36.25 15C36.25 13.7574 35.2426 12.75 34 12.75ZM31.2037 17.4987C31.8904 18.2667 32.8888 18.75 34 18.75C36.0711 18.75 37.75 17.0711 37.75 15C37.75 12.9289 36.0711 11.25 34 11.25C31.9289 11.25 30.25 12.9289 30.25 15C30.25 15.421 30.3194 15.8257 30.4473 16.2035L24.7963 19.5013C24.1096 18.7333 23.1112 18.25 22 18.25C19.9289 18.25 18.25 19.9289 18.25 22C18.25 24.0711 19.9289 25.75 22 25.75C23.1114 25.75 24.1099 25.2665 24.7966 24.4984L30.4488 27.7921C30.3199 28.1711 30.25 28.5774 30.25 29C30.25 31.0711 31.9289 32.75 34 32.75C36.0711 32.75 37.75 31.0711 37.75 29C37.75 26.9289 36.0711 25.25 34 25.25C32.8905 25.25 31.8935 25.7319 31.2069 26.4978L25.5529 23.203C25.6807 22.8254 25.75 22.4208 25.75 22C25.75 21.579 25.6806 21.1743 25.5527 20.7965L31.2037 17.4987ZM23.9179 20.8228C23.9254 20.8381 23.9335 20.8531 23.9422 20.868C23.951 20.883 23.9602 20.8976 23.9698 20.9118C24.1484 21.2343 24.25 21.6053 24.25 22C24.25 22.3947 24.1484 22.7657 23.9698 23.0882C23.9601 23.1025 23.9508 23.1172 23.942 23.1324C23.9334 23.1472 23.9254 23.1621 23.9179 23.1772C23.522 23.8208 22.8111 24.25 22 24.25C20.7574 24.25 19.75 23.2426 19.75 22C19.75 20.7574 20.7574 19.75 22 19.75C22.8111 19.75 23.522 20.1792 23.9179 20.8228ZM32.0036 27.9612C32.0271 27.9321 32.0486 27.9009 32.068 27.8676C32.0867 27.8355 32.1028 27.8026 32.1162 27.7691C32.5181 27.1554 33.2117 26.75 34 26.75C35.2426 26.75 36.25 27.7574 36.25 29C36.25 30.2426 35.2426 31.25 34 31.25C32.7574 31.25 31.75 30.2426 31.75 29C31.75 28.6253 31.8416 28.2719 32.0036 27.9612Z" fill="#FB6514"/>
<rect x="0.5" y="0.5" width="55" height="43" rx="21.5" stroke="#D0D5DD"/>
</svg>
