<?xml version="1.0" encoding="utf-8"?>
<!-- Generator: Adobe Illustrator 27.9.0, SVG Export Plug-In . SVG Version: 6.00 Build 0)  -->
<svg version="1.1" id="Layer_1" xmlns="http://www.w3.org/2000/svg" xmlns:xlink="http://www.w3.org/1999/xlink" x="0px" y="0px"
	 viewBox="0 0 200 200" style="enable-background:new 0 0 200 200;" xml:space="preserve">
<style type="text/css">
	.st0{fill:#F4E3AB;stroke:#111212;}
	.st1{fill:#C3A94C;stroke:#111212;}
	.st2{fill:#C598C5;stroke:#111212;}
	.st3{fill:#AA71AE;stroke:#111212;}
</style>
<g>
	<g>
		<g>
			<path class="st0" d="M173.06,188.95c0.15,0,2.75-8.65,5.32-21.13h-10.64C170.3,180.3,172.94,188.95,173.06,188.95z"/>
		</g>
		<g>
			<path class="st1" d="M183.39,35.87h-20.63c-1.18,4.9-2.18,10.72-3.02,17.45h26.63C185.58,46.59,184.54,40.77,183.39,35.87z"/>
		</g>
		<g>
			<path class="st1" d="M161.96,151.29c0.96,5.82,1.99,11.4,3.03,16.53h16.18c1.03-5.13,2.03-10.71,3.03-16.53H161.96z"/>
		</g>
		<g>
			<path class="st0" d="M188.79,99.02c0-17.91-0.89-33.29-2.41-45.69h-26.63c-1.54,12.4-2.41,27.78-2.41,45.69
				c0,18.14,2.03,36.28,4.63,52.27h22.23C186.76,135.3,188.79,117.16,188.79,99.02z"/>
		</g>
		<g>
			<path class="st0" d="M173.06,19.95c-2.3,0-4.4,5.67-6.01,15.92h12.05C177.5,25.62,175.4,19.95,173.06,19.95z"/>
		</g>
		<g>
			<rect x="170.42" y="68.33" class="st1" width="5.32" height="68.12"/>
		</g>
	</g>
	<g>
		<g>
			<rect x="18.61" y="36.64" class="st2" width="106.92" height="152.31"/>
		</g>
		<g>
			<polygon class="st3" points="35.3,19.95 35.3,172.26 142.17,172.26 142.17,48.28 113.9,19.95 			"/>
		</g>
		<g>
			<polygon class="st0" points="142.17,48.28 113.9,19.95 113.9,48.28 			"/>
		</g>
		<g>
			<path class="st0" d="M58.6,74.38c-0.88,0-1.72-0.38-2.34-1l-7.38-7.58c-1.3-1.3-1.26-3.37,0.04-4.67c1.3-1.3,3.41-1.22,4.71,0.08
				l4.09,4.13L63,54.55c0.8-1.69,2.79-2.37,4.48-1.53c1.65,0.77,2.3,2.76,1.5,4.44l-7.35,15c-0.49,1-1.42,1.69-2.48,1.84
				C58.94,74.38,58.79,74.38,58.6,74.38z"/>
		</g>
		<g>
			<path class="st0" d="M58.6,100.93c-0.88,0-1.72-0.31-2.34-1l-7.38-7.5c-1.3-1.3-1.26-3.44,0.04-4.66c1.3-1.3,3.41-1.3,4.71,0
				l4.09,4.13L63,81.11c0.8-1.61,2.79-2.3,4.48-1.53c1.65,0.84,2.3,2.83,1.5,4.51l-7.35,15c-0.49,1-1.42,1.61-2.48,1.83
				C58.94,100.93,58.79,100.93,58.6,100.93z"/>
		</g>
		<g>
			<path class="st0" d="M58.6,127.57c-0.88,0-1.72-0.38-2.34-1l-7.38-7.58c-1.3-1.3-1.26-3.37,0.04-4.67s3.41-1.3,4.71,0.08
				l4.09,4.13L63,107.74c0.8-1.68,2.79-2.37,4.48-1.53c1.65,0.77,2.3,2.76,1.5,4.44l-7.35,15c-0.49,1-1.42,1.68-2.48,1.83
				C58.94,127.57,58.79,127.57,58.6,127.57z"/>
		</g>
		<g>
			<rect x="80.14" y="60.21" class="st0" width="42.56" height="6.58"/>
		</g>
		<g>
			<rect x="80.14" y="86.78" class="st0" width="26.6" height="6.65"/>
		</g>
		<g>
			<rect x="80.14" y="113.33" class="st0" width="42.56" height="6.66"/>
		</g>
		<g>
			<rect x="80.14" y="139.97" class="st1" width="34.59" height="6.65"/>
		</g>
		<g>
			<rect x="52.55" y="139.97" class="st1" width="10.64" height="6.65"/>
		</g>
	</g>
</g>
</svg>
