<?xml version="1.0" encoding="utf-8"?>
<!-- Generator: Adobe Illustrator 27.9.0, SVG Export Plug-In . SVG Version: 6.00 Build 0)  -->
<svg version="1.1" xmlns="http://www.w3.org/2000/svg" xmlns:xlink="http://www.w3.org/1999/xlink" x="0px" y="0px"
	 viewBox="0 0 200 200" style="enable-background:new 0 0 200 200;" xml:space="preserve">
<style type="text/css">
	.st0{display:none;}
	.st1{display:inline;fill:#AA71AE;stroke:#111212;}
	.st2{display:inline;fill:#C598C5;stroke:#111212;}
	.st3{display:inline;fill:#F4E3AB;stroke:#111212;}
	.st4{display:inline;fill:#C3A94C;stroke:#111212;}
	.st5{display:inline;}
	.st6{fill:#AA71AE;stroke:#111212;}
	.st7{fill:#F4E3AB;stroke:#111212;}
	.st8{fill:#C3A94C;stroke:#111212;}
	.st9{fill:#C598C5;stroke:#111212;}
	.st10{fill:#FFFFFF;stroke:#111212;}
	.st11{fill:#C7C6C6;}
</style>
<g id="About_Us" class="st0">
</g>
<g id="About_Us_00000034077550750917338490000006846468866686130353_" class="st0">
	<g class="st5">
		<g>
			<path class="st6" d="M140.55,51.25c0,23.09-16.67,41.75-40.53,41.75c-23.89,0-40.52-18.66-40.52-41.75S76.12,15,100.02,15
				C123.88,15,140.55,28.16,140.55,51.25z"/>
		</g>
		<g>
			<path class="st6" d="M70.96,121.3c0-0.53,0.07-1.06,0.23-1.53c-2.94,0.61-4.67,0.99-4.67,0.99c-2.52,0.69-4.97,1.46-7.42,2.22
				c-5.7,1.84-11.21,4.06-16.44,6.73c-8.03,4.13-13.19,12.39-13.19,21.41v7.27c0,5.73,3.09,10.93,8.14,13.61
				c9.71,5.12,28.6,12.31,58.42,12.92v-37.31C87.6,142.41,70.96,130.94,70.96,121.3z"/>
		</g>
		<g>
			<path class="st6" d="M157.3,129.71c-5.2-2.68-10.74-4.89-16.44-6.73c-2.44-0.76-4.89-1.53-7.42-2.22
				c-1.53-0.46-3.09-0.84-4.67-1.22c0.16,0.53,0.31,1.14,0.31,1.75c0,9.64-16.67,21.11-25.08,26.31v37.31
				c29.79-0.61,48.68-7.8,58.42-12.92c5.01-2.68,8.1-7.88,8.1-13.61v-7.19C170.52,142.1,165.36,133.84,157.3,129.71z"/>
		</g>
		<g>
			<path class="st7" d="M128.77,119.54c-0.72-2.07-2.67-3.59-5-3.59c-1.64,0-3.14,0.77-4.1,1.91c-0.76,0.92-1.22,2.07-1.22,3.37
				c-0.46,2.67-8.65,9.94-17.97,16.05c-0.15-0.07-0.31-0.07-0.46-0.07c-0.19,0-0.34,0-0.49,0.07c-9.33-6.12-17.51-13.38-17.93-15.98
				c0-1.14-0.38-2.22-0.99-3.05c-0.96-1.38-2.52-2.29-4.32-2.29c-2.4,0-4.43,1.68-5.08,3.82c-0.16,0.46-0.23,0.99-0.23,1.53
				c0,9.64,16.63,21.11,25.08,26.31v37.31c1.3,0,2.6,0.08,3.97,0.08c1.34,0,2.64-0.08,3.98-0.08v-37.31
				c8.41-5.2,25.08-16.67,25.08-26.31C129.08,120.68,128.93,120.07,128.77,119.54z"/>
		</g>
		<g>
			<path class="st8" d="M116.73,104.7h-16.71H83.27c-0.65,4.36-2.52,9.48-7,13.92c0,8.18,23.74,22.56,23.74,22.56
				s23.75-14.38,23.75-22.56C119.25,114.19,117.42,109.06,116.73,104.7z"/>
		</g>
		<g>
			<path class="st7" d="M71.88,49.18c0,0-2.72,10.1-2.72,10.86c-0.46-0.08-2.37-1.68-5.24-0.84c-3.06,0.76-5.32,5.04-4.82,10.7
				c0.49,5.58,3.48,9.87,6.62,9.56c0.42-0.08,0.8-0.23,1.14-0.38c2.76,10.86,8.57,19.88,16.1,25.39c5.04,3.67,10.85,5.73,17.05,5.73
				c6.19,0,12.01-2.06,17.02-5.73c7.57-5.5,13.38-14.53,16.14-25.39c0.34,0.15,0.73,0.31,1.1,0.38c3.18,0.31,6.12-3.98,6.62-9.56
				c0.5-5.66-1.72-9.94-4.82-10.7c-2.87-0.85-4.78,0.76-5.2,0.84c0-0.76-2.72-10.86-2.72-10.86c-14.46,0-19.92-10.85-19.92-10.85
				C94.93,52.71,71.88,49.18,71.88,49.18z"/>
		</g>
	</g>
</g>
<g id="Assessment_Completed_Already_x0A_" class="st0">
	<g class="st5">
		<g>
			<rect x="21.48" y="64.2" class="st8" width="126.66" height="79.61"/>
		</g>
		<g>
			<rect x="34.95" y="80.39" class="st7" width="126.67" height="79.6"/>
		</g>
		<g>
			<polygon class="st8" points="114.3,149.65 98.43,136.34 50.78,176.26 177.8,176.26 130.18,136.34 			"/>
		</g>
		<g>
			<polygon class="st6" points="177.49,96.66 130.18,136.34 177.8,176.26 177.8,96.66 			"/>
		</g>
		<g>
			<polygon class="st6" points="51.13,96.66 50.78,96.66 50.78,176.26 50.78,176.26 98.43,136.34 			"/>
		</g>
		<g>
			<polygon class="st7" points="114.3,149.65 130.18,136.34 177.49,96.66 51.13,96.66 98.43,136.34 			"/>
		</g>
		<g>
			<polygon class="st6" points="13.49,128.01 13.49,152.14 54.97,186.06 55.32,186.06 55.32,161.94 			"/>
		</g>
		<g>
			<rect x="55.32" y="161.94" class="st9" width="130.74" height="24.12"/>
		</g>
		<g>
			<polygon class="st6" points="105.7,27.79 105.7,13.94 84.82,13.94 84.82,27.79 71.47,27.79 95.25,51.68 119.08,27.79 			"/>
		</g>
	</g>
</g>
<g id="Privacy_Policy" class="st0">
	<g class="st5">
		<g>
			<g>
				<polygon class="st6" points="154.54,20.9 60.56,20.9 60.56,178.03 184.61,178.03 184.61,51.05 154.54,51.05 				"/>
			</g>
			<g>
				<polygon class="st7" points="154.54,51.05 184.61,51.05 154.54,20.9 				"/>
			</g>
		</g>
		<g>
			<g>
				<rect x="141.83" y="63.54" class="st8" width="27.75" height="6.63"/>
			</g>
			<g>
				<rect x="141.83" y="82.19" class="st8" width="27.75" height="6.62"/>
			</g>
			<g>
				<rect x="141.83" y="100.84" class="st8" width="11.88" height="6.63"/>
			</g>
			<g>
				<rect x="141.83" y="119.49" class="st8" width="27.75" height="6.62"/>
			</g>
			<g>
				<rect x="141.83" y="138.14" class="st8" width="19.83" height="6.63"/>
			</g>
			<g>
				<rect x="78.38" y="156.64" class="st8" width="91.2" height="6.63"/>
			</g>
		</g>
		<g>
			<g>
				<rect x="31.22" y="66.89" class="st8" width="94.32" height="74.52"/>
			</g>
			<g>
				<rect x="15.35" y="51.05" class="st7" width="94.32" height="74.53"/>
			</g>
			<g>
				<path class="st10" d="M78.49,78.61c-5.02,0-9.14-3.88-9.55-8.75c-0.04-0.16-0.04-0.3-0.04-0.46V50.98
					c0-8.75,7.12-15.91,15.87-15.91s15.87,7.16,15.87,15.91h-5.29c0-5.86-4.76-10.59-10.58-10.59c-5.86,0-10.59,4.72-10.59,10.59
					v18.04c0,2.36,1.91,4.34,4.3,4.34c2.36,0,4.3-1.98,4.3-4.34v-7.46h5.29v7.46C88.09,74.35,83.75,78.61,78.49,78.61z"/>
			</g>
			<g>
				<polygon class="st6" points="41.8,75.95 15.35,104.57 15.35,125.58 42.79,125.58 65.21,101.3 				"/>
			</g>
			<g>
				<polygon class="st9" points="76.21,89.42 42.79,125.58 109.67,125.58 				"/>
			</g>
		</g>
	</g>
</g>
<g id="Terms_of_Service" class="st0">
	<g class="st5">
		<g>
			<g>
				<path class="st7" d="M169.36,184.5c0.15,0,2.75-8.65,5.32-21.13h-10.64C166.6,175.85,169.24,184.5,169.36,184.5z"/>
			</g>
			<g>
				<path class="st8" d="M179.69,31.42h-20.63c-1.18,4.9-2.18,10.72-3.02,17.45h26.63C181.88,42.14,180.84,36.32,179.69,31.42z"/>
			</g>
			<g>
				<path class="st8" d="M158.26,146.84c0.96,5.82,1.99,11.4,3.03,16.53h16.18c1.03-5.13,2.03-10.71,3.03-16.53H158.26z"/>
			</g>
			<g>
				<path class="st7" d="M185.09,94.56c0-17.91-0.89-33.29-2.41-45.69h-26.63c-1.54,12.4-2.41,27.78-2.41,45.69
					c0,18.14,2.03,36.28,4.63,52.27h22.23C183.06,130.84,185.09,112.71,185.09,94.56z"/>
			</g>
			<g>
				<path class="st7" d="M169.36,15.5c-2.3,0-4.4,5.67-6.01,15.92h12.05C173.8,21.17,171.7,15.5,169.36,15.5z"/>
			</g>
			<g>
				<rect x="166.72" y="63.87" class="st8" width="5.32" height="68.12"/>
			</g>
		</g>
		<g>
			<g>
				<rect x="14.91" y="32.19" class="st9" width="106.92" height="152.31"/>
			</g>
			<g>
				<polygon class="st6" points="31.6,15.5 31.6,167.81 138.47,167.81 138.47,43.83 110.2,15.5 				"/>
			</g>
			<g>
				<polygon class="st7" points="138.47,43.83 110.2,15.5 110.2,43.83 				"/>
			</g>
			<g>
				<path class="st7" d="M54.9,69.92c-0.88,0-1.72-0.38-2.34-1l-7.38-7.58c-1.3-1.3-1.26-3.37,0.04-4.67s3.41-1.22,4.71,0.08
					l4.09,4.13L59.3,50.1c0.8-1.69,2.79-2.37,4.48-1.53c1.65,0.77,2.3,2.76,1.5,4.44l-7.35,15c-0.49,1-1.42,1.69-2.48,1.84
					C55.24,69.92,55.09,69.92,54.9,69.92z"/>
			</g>
			<g>
				<path class="st7" d="M54.9,96.48c-0.88,0-1.72-0.31-2.34-1l-7.38-7.5c-1.3-1.3-1.26-3.44,0.04-4.66c1.3-1.3,3.41-1.3,4.71,0
					l4.09,4.13l5.28-10.79c0.8-1.61,2.79-2.3,4.48-1.53c1.65,0.84,2.3,2.83,1.5,4.51l-7.35,15c-0.49,1-1.42,1.61-2.48,1.83
					C55.24,96.48,55.09,96.48,54.9,96.48z"/>
			</g>
			<g>
				<path class="st7" d="M54.9,123.12c-0.88,0-1.72-0.38-2.34-1l-7.38-7.58c-1.3-1.3-1.26-3.37,0.04-4.67s3.41-1.3,4.71,0.08
					l4.09,4.13l5.28-10.79c0.8-1.68,2.79-2.37,4.48-1.53c1.65,0.77,2.3,2.76,1.5,4.44l-7.35,15c-0.49,1-1.42,1.68-2.48,1.83
					C55.24,123.12,55.09,123.12,54.9,123.12z"/>
			</g>
			<g>
				<rect x="76.44" y="55.76" class="st7" width="42.56" height="6.58"/>
			</g>
			<g>
				<rect x="76.44" y="82.32" class="st7" width="26.6" height="6.65"/>
			</g>
			<g>
				<rect x="76.44" y="108.88" class="st7" width="42.56" height="6.66"/>
			</g>
			<g>
				<rect x="76.44" y="135.51" class="st8" width="34.59" height="6.65"/>
			</g>
			<g>
				<rect x="48.85" y="135.51" class="st8" width="10.64" height="6.65"/>
			</g>
		</g>
	</g>
</g>
<g id="Maximum_Attempts_Reached" class="st0">
	<g class="st5">
		<g>
			<rect x="111.42" y="145.1" class="st11" width="16.06" height="19.51"/>
		</g>
		<g>
			<path class="st6" d="M108.9,156.1l-29.8,8.52h80.71l-29.8-8.52C123.11,154.16,115.8,154.16,108.9,156.1z"/>
		</g>
		<g>
			<path class="st7" d="M176.85,27.02H62.06c-5.11,0-9.21,4.11-9.21,9.22v87.25h133.22V36.24
				C186.06,31.13,181.91,27.02,176.85,27.02z"/>
		</g>
		<g>
			<path class="st6" d="M52.84,123.5v12.39c0,5.11,4.11,9.21,9.21,9.21h114.79c5.07,0,9.21-4.11,9.21-9.21V123.5H52.84z"/>
		</g>
		<g>
			<path class="st7" d="M82.43,67.44H23.27c-5.15,0-9.37,4.18-9.37,9.37v78.36c0,5.19,4.22,9.44,9.37,9.44h59.16
				c5.19,0,9.4-4.26,9.4-9.44V76.81C91.83,71.62,87.61,67.44,82.43,67.44z"/>
		</g>
		<g>
			<path class="st6" d="M56.21,156.25c0,1.86-1.51,3.33-3.37,3.33s-3.37-1.47-3.37-3.33c0-1.86,1.51-3.4,3.37-3.4
				S56.21,154.39,56.21,156.25z"/>
		</g>
		<g>
			<path class="st7" d="M122.8,134.26c0,1.78-1.51,3.33-3.36,3.33c-1.86,0-3.33-1.55-3.33-3.33c0-1.86,1.47-3.41,3.33-3.41
				C121.29,130.85,122.8,132.4,122.8,134.26z"/>
		</g>
		<g>
			<rect x="65.97" y="40.19" class="st6" width="106.97" height="14.79"/>
		</g>
		<g>
			<rect x="27.45" y="81.38" class="st6" width="50.79" height="14.79"/>
		</g>
		<g>
			<rect x="27.45" y="108.01" class="st9" width="50.79" height="6.74"/>
		</g>
		<g>
			<rect x="27.45" y="124.66" class="st9" width="50.79" height="6.66"/>
		</g>
		<g>
			<rect x="27.45" y="141.23" class="st9" width="40.11" height="6.73"/>
		</g>
		<g>
			<rect x="105.19" y="67.75" class="st9" width="67.75" height="6.74"/>
		</g>
		<g>
			<rect x="105.19" y="83.85" class="st9" width="67.75" height="6.74"/>
		</g>
		<g>
			<rect x="105.19" y="100.03" class="st9" width="54.35" height="6.66"/>
		</g>
	</g>
</g>
<g id="Assessment_Completed_Already" class="st0">
	<g class="st5">
		<g>
			<g>
				<polygon class="st7" points="140.34,13.93 34.25,13.93 34.25,185 173.31,185 173.31,46.87 140.34,46.87 				"/>
			</g>
			<g>
				<polygon class="st8" points="140.34,46.87 173.31,46.87 140.34,13.93 				"/>
			</g>
		</g>
		<g>
			<g>
				<rect x="55.65" y="43.56" class="st6" width="61.49" height="6.7"/>
			</g>
			<g>
				<rect x="103.78" y="64.96" class="st9" width="48.14" height="6.69"/>
			</g>
			<g>
				<rect x="55.65" y="64.96" class="st9" width="32.09" height="6.69"/>
			</g>
			<g>
				<rect x="125.18" y="86.35" class="st9" width="26.75" height="6.69"/>
			</g>
			<g>
				<rect x="55.65" y="86.35" class="st9" width="53.48" height="6.69"/>
			</g>
			<g>
				<rect x="103.78" y="107.75" class="st9" width="37.44" height="6.69"/>
			</g>
			<g>
				<rect x="55.65" y="107.75" class="st9" width="32.09" height="6.69"/>
			</g>
			<g>
				<rect x="55.65" y="129.13" class="st9" width="18.7" height="6.7"/>
			</g>
			<g>
				<rect x="90.43" y="129.13" class="st9" width="61.49" height="6.7"/>
			</g>
			<g>
				<rect x="55.65" y="150.53" class="st9" width="56.14" height="6.7"/>
			</g>
		</g>
	</g>
</g>
<g id="Exit_Assessment_x0A__-" class="st0">
	<g class="st5">
		<g>
			<rect x="13.94" y="42.86" class="st7" width="172.12" height="126.26"/>
		</g>
		<g>
			<rect x="13.94" y="15.92" class="st6" width="172.12" height="26.94"/>
		</g>
		<g>
			<path class="st7" d="M171.93,32.73c-0.89,0-1.74-0.31-2.35-0.94c-0.66-0.7-1.01-1.55-1.01-2.39c0-0.94,0.35-1.78,1.01-2.4
				c1.24-1.24,3.48-1.24,4.72,0c0.66,0.62,1.01,1.47,1.01,2.4c0,0.85-0.35,1.7-1.01,2.39C173.67,32.42,172.82,32.73,171.93,32.73z"
				/>
		</g>
		<g>
			<path class="st7" d="M152.46,29.4c0-1.86,1.47-3.41,3.33-3.41l0,0c1.86,0,3.37,1.55,3.37,3.41l0,0c0,1.85-1.51,3.33-3.37,3.33
				l0,0C153.93,32.73,152.46,31.25,152.46,29.4z"/>
		</g>
		<g>
			<path class="st7" d="M139.69,32.73c-0.93,0-1.78-0.31-2.4-0.94c-0.62-0.7-0.97-1.55-0.97-2.39c0-0.94,0.35-1.78,0.97-2.4
				c1.24-1.24,3.49-1.24,4.76,0c0.62,0.62,0.97,1.47,0.97,2.4c0,0.85-0.35,1.7-0.97,2.39C141.39,32.42,140.54,32.73,139.69,32.73z"
				/>
		</g>
		<g>
			<path class="st8" d="M145.49,65.08H54.5c-7.51,0-13.67,6.19-13.67,13.7v36.15c0,7.43,6.16,13.62,13.67,13.62h90.99
				c7.51,0,13.67-6.19,13.67-13.62V78.78C159.16,71.27,153.01,65.08,145.49,65.08z"/>
		</g>
		<g>
			<polygon class="st9" points="129.78,96.82 109.41,78 109.41,88.15 80.31,88.15 80.31,105.48 109.41,105.48 109.41,115.7 			"/>
		</g>
	</g>
</g>
<g id="Invited" class="st0">
	<g class="st5">
		<g>
			<g>
				<polygon class="st9" points="99.98,34.02 13.12,99.08 99.98,164.14 186.84,99.08 				"/>
			</g>
			<g>
				<polygon class="st8" points="99.98,164.14 13.12,99.08 13.12,186.33 186.84,186.33 186.84,99.08 				"/>
			</g>
			<g>
				<polygon class="st7" points="13.12,186.33 186.84,186.33 99.98,121.26 				"/>
			</g>
			<g>
				<path class="st6" d="M186.84,20.74v58.81c0,4.46-3.67,8.13-8.17,8.13H98.3l-26.99,19.13V87.68H58.86c-4.5,0-8.17-3.67-8.17-8.13
					V20.74c0-4.46,3.67-8.13,8.17-8.13h119.81C183.17,12.61,186.84,16.28,186.84,20.74z"/>
			</g>
		</g>
		<g>
			<g>
				<rect x="143.21" y="28.46" class="st7" width="24.41" height="5.39"/>
			</g>
			<g>
				<rect x="69.9" y="28.46" class="st7" width="57.02" height="5.39"/>
			</g>
			<g>
				<rect x="107.9" y="47.44" class="st7" width="59.72" height="5.39"/>
			</g>
			<g>
				<rect x="69.9" y="47.44" class="st7" width="21.72" height="5.39"/>
			</g>
			<g>
				<rect x="69.9" y="66.43" class="st7" width="76" height="5.46"/>
			</g>
		</g>
	</g>
</g>
<g id="think_twice">
	<g>
		<g>
			<path class="st8" d="M139.72,32.98H33.9c-5.92,0-10.77,4.88-10.77,10.77v131.84c0,5.88,4.84,10.76,10.77,10.76h105.82
				c5.92,0,10.77-4.88,10.77-10.76v-1.17V70.14v-26.4C150.49,37.86,145.64,32.98,139.72,32.98z"/>
		</g>
		<g>
			<path class="st6" d="M108.33,22.22H94.9c0-4.42-3.64-8.05-8.09-8.05c-4.46,0-8.05,3.64-8.05,8.05H65.29
				c-2.94,0-5.38,2.47-5.38,5.41V38.4c0,2.94,2.44,5.34,5.38,5.34h43.04c2.95,0,5.38-2.4,5.38-5.34V27.63
				C113.71,24.69,111.28,22.22,108.33,22.22z"/>
		</g>
		<g>
			<g>
				<path class="st7" d="M51.43,58.68H44.7c-2.94,0-5.38,2.48-5.38,5.42v6.74c0,2.94,2.44,5.34,5.38,5.34h6.74
					c2.94,0,5.37-2.4,5.37-5.34V64.1C56.81,61.16,54.38,58.68,51.43,58.68z"/>
			</g>
			<g>
				<path class="st7" d="M51.43,88.33H44.7c-2.94,0-5.38,2.39-5.38,5.34v6.73c0,2.94,2.44,5.34,5.38,5.34h6.74
					c2.94,0,5.37-2.4,5.37-5.34v-6.73C56.81,90.73,54.38,88.33,51.43,88.33z"/>
			</g>
			<g>
				<path class="st7" d="M51.43,117.9H44.7c-2.94,0-5.38,2.4-5.38,5.34v6.74c0,3.01,2.44,5.41,5.38,5.41h6.74
					c2.94,0,5.37-2.4,5.37-5.41v-6.74C56.81,120.3,54.38,117.9,51.43,117.9z"/>
			</g>
			<g>
				<path class="st7" d="M51.43,147.48H44.7c-2.94,0-5.38,2.39-5.38,5.34v6.74c0,3.02,2.44,5.42,5.38,5.42h6.74
					c2.94,0,5.37-2.4,5.37-5.42v-6.74C56.81,149.87,54.38,147.48,51.43,147.48z"/>
			</g>
		</g>
		<g>
			<g>
				<rect x="70.75" y="64.1" class="st7" width="64.22" height="6.74"/>
			</g>
			<g>
				<rect x="70.75" y="93.68" class="st7" width="34.68" height="6.73"/>
			</g>
			<g>
				<rect x="70.75" y="123.24" class="st7" width="40.06" height="6.74"/>
			</g>
			<g>
				<rect x="70.75" y="152.81" class="st7" width="29.3" height="6.74"/>
			</g>
		</g>
		<g>
			<path class="st9" d="M129.14,107.48c-4.35,0-7.91,3.53-7.91,7.88v7.88h7.91c4.32,0,7.88-3.58,7.88-7.88
				C137.02,111.01,133.46,107.48,129.14,107.48z"/>
		</g>
	</g>
	<g>
		<path class="st6" d="M186.06,83.35l-16.82-16.82v9.32c0,0-42.02,5.99-42.02,44.96c0,0,14.93-30.56,42.02-29.96v9.27L186.06,83.35z
			"/>
	</g>
</g>
</svg>
