<svg width="200" height="200" viewBox="0 0 200 200" fill="none" xmlns="http://www.w3.org/2000/svg">
<rect width="200" height="200" rx="20" fill="#F2F4F7"/>
<g clipPath="url(#clip0_875_21709)">
<rect x="10.2168" y="10" width="42" height="42" rx="11" fill="#FCFCFD"/>
<path d="M35.5212 43V18.88H30.8052C29.5812 20.464 27.9612 21.04 25.8372 21.04V24.964H30.3732V43H35.5212Z" fill="#FD853A"/>
</g>
<path d="M54.3927 84.5947C54.3927 81.747 56.7013 79.4385 59.549 79.4385H146.855C149.702 79.4385 152.011 81.747 152.011 84.5947V141.809C152.011 144.657 149.702 146.965 146.855 146.965H59.549C56.7013 146.965 54.3927 144.657 54.3927 141.809V84.5947Z" fill="black"/>
<path d="M49.708 79.9098C49.708 77.0621 52.0166 74.7535 54.8643 74.7535H142.17C145.018 74.7535 147.326 77.0621 147.326 79.9098V137.124C147.326 139.972 145.018 142.28 142.17 142.28H54.8643C52.0166 142.28 49.708 139.972 49.708 137.124V79.9098Z" fill="white"/>
<path fillRule="evenodd" clipRule="evenodd" d="M54.8643 73.0348H142.17C145.967 73.0348 149.045 76.1128 149.045 79.9098V137.124C149.045 140.921 145.967 143.999 142.17 143.999H54.8643C51.0674 143.999 47.9893 140.921 47.9893 137.124V79.9098C47.9893 76.1128 51.0673 73.0348 54.8643 73.0348ZM54.8643 74.7535C52.0166 74.7535 49.708 77.0621 49.708 79.9098V137.124C49.708 139.972 52.0166 142.28 54.8643 142.28H142.17C145.018 142.28 147.326 139.972 147.326 137.124V79.9098C147.326 77.0621 145.018 74.7535 142.17 74.7535H54.8643Z" fill="black"/>
<path fillRule="evenodd" clipRule="evenodd" d="M128.416 88.9338C128.416 88.4592 128.801 88.0745 129.276 88.0745H143.403C143.878 88.0745 144.263 88.4592 144.263 88.9338C144.263 89.4085 143.878 89.7932 143.403 89.7932H129.276C128.801 89.7932 128.416 89.4085 128.416 88.9338Z" fill="black"/>
<path fillRule="evenodd" clipRule="evenodd" d="M76.1133 88.9338C76.1133 88.4592 76.498 88.0745 76.9727 88.0745H91.1C91.575 88.0745 91.96 88.4592 91.96 88.9338C91.96 89.4085 91.575 89.7932 91.1 89.7932H76.9727C76.498 89.7932 76.1133 89.4085 76.1133 88.9338Z" fill="black"/>
<path fillRule="evenodd" clipRule="evenodd" d="M128.417 92.4395C128.417 91.9648 128.802 91.5801 129.276 91.5801H136.988C137.463 91.5801 137.847 91.9648 137.847 92.4395C137.847 92.9141 137.463 93.2988 136.988 93.2988H129.276C128.802 93.2988 128.417 92.9141 128.417 92.4395Z" fill="black"/>
<path fillRule="evenodd" clipRule="evenodd" d="M76.1139 92.4395C76.1139 91.9648 76.4986 91.5801 76.9732 91.5801H84.685C85.16 91.5801 85.544 91.9648 85.544 92.4395C85.544 92.9141 85.16 93.2988 84.685 93.2988H76.9732C76.4986 93.2988 76.1139 92.9141 76.1139 92.4395Z" fill="black"/>
<path fillRule="evenodd" clipRule="evenodd" d="M128.416 123.751C128.416 123.276 128.801 122.891 129.276 122.891H143.403C143.878 122.891 144.263 123.276 144.263 123.751C144.263 124.225 143.878 124.61 143.403 124.61H129.276C128.801 124.61 128.416 124.225 128.416 123.751Z" fill="black"/>
<path fillRule="evenodd" clipRule="evenodd" d="M76.1133 123.751C76.1133 123.276 76.498 122.891 76.9727 122.891H91.1C91.575 122.891 91.96 123.276 91.96 123.751C91.96 124.225 91.575 124.61 91.1 124.61H76.9727C76.498 124.61 76.1133 124.225 76.1133 123.751Z" fill="black"/>
<path fillRule="evenodd" clipRule="evenodd" d="M128.417 127.256C128.417 126.782 128.802 126.397 129.276 126.397H136.988C137.463 126.397 137.847 126.782 137.847 127.256C137.847 127.731 137.463 128.116 136.988 128.116H129.276C128.802 128.116 128.417 127.731 128.417 127.256Z" fill="black"/>
<path fillRule="evenodd" clipRule="evenodd" d="M76.1139 127.256C76.1139 126.782 76.4986 126.397 76.9732 126.397H84.685C85.16 126.397 85.544 126.782 85.544 127.256C85.544 127.731 85.16 128.116 84.685 128.116H76.9732C76.4986 128.116 76.1139 127.731 76.1139 127.256Z" fill="black"/>
<path fillRule="evenodd" clipRule="evenodd" d="M128.416 105.011C128.416 104.537 128.801 104.152 129.276 104.152H143.403C143.878 104.152 144.263 104.537 144.263 105.011C144.263 105.486 143.878 105.871 143.403 105.871H129.276C128.801 105.871 128.416 105.486 128.416 105.011Z" fill="black"/>
<path fillRule="evenodd" clipRule="evenodd" d="M76.1133 105.011C76.1133 104.537 76.498 104.152 76.9727 104.152H91.1C91.575 104.152 91.96 104.537 91.96 105.011C91.96 105.486 91.575 105.871 91.1 105.871H76.9727C76.498 105.871 76.1133 105.486 76.1133 105.011Z" fill="black"/>
<path fillRule="evenodd" clipRule="evenodd" d="M128.417 108.517C128.417 108.042 128.802 107.658 129.276 107.658H136.988C137.463 107.658 137.847 108.042 137.847 108.517C137.847 108.992 137.463 109.376 136.988 109.376H129.276C128.802 109.376 128.417 108.992 128.417 108.517Z" fill="black"/>
<path fillRule="evenodd" clipRule="evenodd" d="M76.1139 108.517C76.1139 108.042 76.4986 107.658 76.9732 107.658H84.685C85.16 107.658 85.544 108.042 85.544 108.517C85.544 108.992 85.16 109.376 84.685 109.376H76.9732C76.4986 109.376 76.1139 108.992 76.1139 108.517Z" fill="black"/>
<path fillRule="evenodd" clipRule="evenodd" d="M109.741 86.3369H123.678C125.576 86.3369 127.115 87.8759 127.115 89.7744V98.7976C127.115 100.696 125.576 102.235 123.678 102.235H109.741C107.842 102.235 106.303 100.696 106.303 98.7976V89.7744C106.303 87.8759 107.842 86.3369 109.741 86.3369ZM109.741 88.0557C108.791 88.0557 108.022 88.8252 108.022 89.7744V98.7976C108.022 99.7468 108.791 100.516 109.741 100.516H123.678C124.627 100.516 125.397 99.7468 125.397 98.7976V89.7744C125.397 88.8252 124.627 88.0557 123.678 88.0557H109.741Z" fill="black"/>
<path fillRule="evenodd" clipRule="evenodd" d="M57.4375 86.3369H71.3746C73.2731 86.3369 74.8121 87.8759 74.8121 89.7744V98.7976C74.8121 100.696 73.2731 102.235 71.3746 102.235H57.4375C55.539 102.235 54 100.696 54 98.7976V89.7744C54 87.8759 55.539 86.3369 57.4375 86.3369ZM57.4375 88.0557C56.4882 88.0557 55.7187 88.8252 55.7187 89.7744V98.7976C55.7187 99.7468 56.4882 100.516 57.4375 100.516H71.3746C72.3238 100.516 73.0934 99.7468 73.0934 98.7976V89.7744C73.0934 88.8252 72.3239 88.0557 71.3746 88.0557H57.4375Z" fill="black"/>
<path fillRule="evenodd" clipRule="evenodd" d="M56.7191 78.5779H140.539C142.019 78.5779 143.219 79.778 143.219 81.2584C143.219 82.7388 142.019 83.9389 140.539 83.9389H56.7191C55.2387 83.9389 54.0386 82.7388 54.0386 81.2584C54.0386 79.778 55.2387 78.5779 56.7191 78.5779ZM56.7191 80.2966C56.1879 80.2966 55.7573 80.7272 55.7573 81.2584C55.7573 81.7895 56.1879 82.2201 56.7191 82.2201H140.539C141.07 82.2201 141.5 81.7895 141.5 81.2584C141.5 80.7272 141.07 80.2966 140.539 80.2966H56.7191Z" fill="black"/>
<path fillRule="evenodd" clipRule="evenodd" d="M109.741 103.076H123.678C125.576 103.076 127.115 104.615 127.115 106.514V115.537C127.115 117.435 125.576 118.974 123.678 118.974H109.741C107.842 118.974 106.303 117.435 106.303 115.537V106.514C106.303 104.615 107.842 103.076 109.741 103.076ZM109.741 104.795C108.791 104.795 108.022 105.565 108.022 106.514V115.537C108.022 116.486 108.791 117.256 109.741 117.256H123.678C124.627 117.256 125.397 116.486 125.397 115.537V106.514C125.397 105.565 124.627 104.795 123.678 104.795H109.741Z" fill="black"/>
<path fillRule="evenodd" clipRule="evenodd" d="M57.4375 103.076H71.3746C73.2731 103.076 74.8121 104.615 74.8121 106.514V115.537C74.8121 117.435 73.2731 118.974 71.3746 118.974H57.4375C55.539 118.974 54 117.435 54 115.537V106.514C54 104.615 55.539 103.076 57.4375 103.076ZM57.4375 104.795C56.4882 104.795 55.7187 105.565 55.7187 106.514V115.537C55.7187 116.486 56.4882 117.256 57.4375 117.256H71.3746C72.3238 117.256 73.0934 116.486 73.0934 115.537V106.514C73.0934 105.565 72.3239 104.795 71.3746 104.795H57.4375Z" fill="black"/>
<path fillRule="evenodd" clipRule="evenodd" d="M109.741 120.891H123.678C125.576 120.891 127.115 122.43 127.115 124.328V133.352C127.115 135.25 125.576 136.789 123.678 136.789H109.741C107.842 136.789 106.303 135.25 106.303 133.352V124.328C106.303 122.43 107.842 120.891 109.741 120.891ZM109.741 122.61C108.791 122.61 108.022 123.379 108.022 124.328V133.352C108.022 134.301 108.791 135.07 109.741 135.07H123.678C124.627 135.07 125.397 134.301 125.397 133.352V124.328C125.397 123.379 124.627 122.61 123.678 122.61H109.741Z" fill="black"/>
<path fillRule="evenodd" clipRule="evenodd" d="M57.4375 120.891H71.3746C73.2731 120.891 74.8121 122.43 74.8121 124.328V133.352C74.8121 135.25 73.2731 136.789 71.3746 136.789H57.4375C55.539 136.789 54 135.25 54 133.352V124.328C54 122.43 55.539 120.891 57.4375 120.891ZM57.4375 122.61C56.4882 122.61 55.7187 123.379 55.7187 124.328V133.352C55.7187 134.301 56.4882 135.07 57.4375 135.07H71.3746C72.3238 135.07 73.0934 134.301 73.0934 133.352V124.328C73.0934 123.379 72.3239 122.61 71.3746 122.61H57.4375Z" fill="black"/>
<path d="M130.672 165.266V162.58C130.672 160.297 132.724 158.576 135.006 158.631C142.435 158.808 148.235 156.249 151.904 153.66C153.857 152.282 156.761 152.385 158.199 154.293L159.351 155.823C160.407 157.223 160.349 159.19 159.092 160.414C149.783 169.476 139.397 169.715 133.375 168.665C131.753 168.382 130.672 166.913 130.672 165.266Z" fill="black"/>
<path d="M125.566 155.196C131.416 161.387 139.707 159.839 144.375 158.428C153.713 155.605 159.446 149.287 154.366 132.479C153.419 129.347 149.671 127.062 146.054 129.295C145.269 129.78 144.258 129.821 143.44 129.395C140.373 127.798 138.022 129.471 136.713 130.907C136.186 131.485 135.112 131.388 134.819 130.663L133.424 127.211L131.402 121.32C130.344 117.818 126.951 115.022 123.449 116.081C119.948 117.139 120.192 122.161 121.526 126.574L127.059 143.281L122.499 140.838C120.979 140.023 117.309 138.84 114.79 140.62C112.272 142.4 112.347 145.18 114.22 147.161C116.093 149.143 121.82 151.233 125.566 155.196Z" fill="white"/>
<path fillRule="evenodd" clipRule="evenodd" d="M123.375 139.204L123.839 139.453L119.766 127.157C119.761 127.141 119.756 127.126 119.752 127.11C119.051 124.791 118.584 122.16 118.832 119.87C119.082 117.559 120.153 115.141 122.913 114.307C125.31 113.582 127.619 114.208 129.413 115.478C131.176 116.727 132.519 118.64 133.165 120.749L135.161 126.563L136.106 128.902C136.811 128.272 137.713 127.648 138.804 127.265C140.412 126.701 142.299 126.711 144.296 127.752C144.529 127.873 144.845 127.864 145.08 127.719C147.427 126.27 149.921 126.256 151.976 127.188C153.974 128.094 155.513 129.87 156.139 131.943C158.737 140.538 158.706 146.866 156.443 151.51C154.156 156.203 149.818 158.719 144.912 160.202C140.206 161.624 130.881 163.519 124.219 156.469C122.537 154.69 120.364 153.286 118.245 152.03C117.905 151.828 117.559 151.626 117.216 151.425C116.532 151.026 115.861 150.634 115.274 150.267C114.402 149.722 113.517 149.115 112.874 148.434C111.656 147.146 110.915 145.479 111.008 143.717C111.104 141.916 112.059 140.282 113.721 139.107C115.499 137.85 117.575 137.711 119.246 137.917C120.926 138.123 122.441 138.704 123.375 139.204ZM133.424 127.211L134.819 130.663C135.112 131.388 136.186 131.485 136.713 130.907C138.022 129.472 140.373 127.798 143.44 129.395C144.258 129.821 145.269 129.78 146.054 129.295C149.671 127.062 153.419 129.347 154.366 132.479C159.446 149.287 153.713 155.605 144.376 158.428C139.707 159.839 131.417 161.387 125.566 155.197C123.372 152.875 120.497 151.196 118.117 149.805C116.433 148.822 114.996 147.982 114.22 147.162C112.348 145.18 112.272 142.401 114.791 140.62C117.31 138.84 120.979 140.023 122.499 140.838L127.059 143.281L121.526 126.574C120.192 122.161 119.948 117.139 123.449 116.081C126.951 115.022 130.344 117.818 131.402 121.32L133.424 127.211Z" fill="black"/>
<path fillRule="evenodd" clipRule="evenodd" d="M136.595 136.545C137.092 136.424 137.593 136.729 137.714 137.226L140.007 146.625C140.128 147.122 139.823 147.623 139.326 147.745C138.829 147.866 138.328 147.561 138.207 147.064L135.914 137.665C135.793 137.168 136.097 136.666 136.595 136.545Z" fill="black"/>
<path fillRule="evenodd" clipRule="evenodd" d="M145.837 135.41C146.347 135.371 146.792 135.753 146.832 136.263L147.29 142.224C147.329 142.734 146.948 143.179 146.437 143.219C145.927 143.258 145.482 142.876 145.442 142.366L144.984 136.405C144.945 135.895 145.327 135.45 145.837 135.41Z" fill="black"/>
<defs>
<clipPath id="clip0_875_21709">
<rect x="10.2168" y="10" width="42" height="42" rx="11" fill="white"/>
</clipPath>
</defs>
</svg>
